<svg width="24" height="24" viewBox="0 0 24 24" fill="none" xmlns="http://www.w3.org/2000/svg">
<g clip-path="url(#clip0_436_2562)">
<path d="M23.8561 0.0253906H0V23.9746H23.8561V16.0705C23.9492 15.9351 24 15.7574 24 15.5458C24 15.3004 23.9492 15.1481 23.8561 15.0212" fill="url(#paint0_radial_436_2562)"/>
<path d="M2.14951 10.3836L1.69252 9.26657L1.23554 10.3836M12.2623 9.94358C12.1693 10.0028 12.0592 10.0028 11.9323 10.0028H11.1199V9.37659H11.9492C12.0677 9.37659 12.1862 9.38505 12.2708 9.42736C12.3554 9.46967 12.4147 9.5543 12.4147 9.67278C12.3977 9.79972 12.347 9.8928 12.2623 9.94358ZM18.0762 10.3836L17.6107 9.26657L17.1453 10.3836H18.0762ZM7.244 11.6023H6.55853V9.40197L5.58533 11.6023H4.99295L4.01975 9.40197V11.6023H2.6488L2.39492 10.976H0.99859L0.736248 11.6023H0.00846262L1.21016 8.79266H2.20874L3.34274 11.4499V8.79266H4.43441L5.31453 10.6968L6.11848 8.79266H7.23554L7.244 11.6023ZM9.97743 11.6023H7.7433V8.79266H9.9859V9.37659H8.41185V9.88434H9.94358V10.4598H8.41185V11.0183H9.97743V11.6023ZM13.1425 9.54584C13.1425 9.99436 12.8463 10.2228 12.6685 10.2905C12.8124 10.3498 12.9394 10.4429 12.9986 10.5275C13.0917 10.6629 13.1086 10.7898 13.1086 11.0437V11.5938H12.4316V11.2384C12.4316 11.0691 12.4485 10.8237 12.3216 10.6883C12.22 10.5867 12.0762 10.5698 11.8307 10.5698H11.1114V11.5938H10.4429V8.7842H11.9831C12.3216 8.7842 12.5755 8.79266 12.7955 8.9196C13.0155 9.05501 13.1425 9.23272 13.1425 9.54584ZM14.2172 11.6023H13.5317V8.79266H14.2172V11.6023ZM22.1551 11.6023H21.2073L19.9379 9.49506V11.6023H18.5755L18.3131 10.976H16.9168L16.6629 11.6023H15.8759C15.5458 11.6023 15.1396 11.5261 14.9027 11.2891C14.6657 11.0522 14.5472 10.7306 14.5472 10.2144C14.5472 9.79972 14.6234 9.4189 14.9111 9.11424C15.1312 8.89422 15.4697 8.7842 15.9267 8.7842H16.5783V9.38505H15.9436C15.6982 9.38505 15.5628 9.4189 15.4274 9.5543C15.3089 9.67278 15.2327 9.8928 15.2327 10.189C15.2327 10.4937 15.292 10.7052 15.4189 10.8491C15.5204 10.9591 15.7066 10.9929 15.8843 10.9929H16.189L17.1368 8.7842H18.1439L19.2779 11.4415V8.7842H20.3018L21.4781 10.7391V8.7842H22.1636V11.6023H22.1551ZM0 12.1523H1.14245L1.4048 11.5261H1.98025L2.23413 12.1523H4.48519V11.6784L4.68829 12.1608H5.85613L6.05924 11.6784V12.1608H11.6615V11.1368H11.7715C11.8477 11.1368 11.8731 11.1453 11.8731 11.2722V12.1608H14.7673V11.9238C15.0042 12.0508 15.3681 12.1608 15.842 12.1608H17.0606L17.323 11.5346H17.8984L18.1523 12.1608H20.5049V11.5684L20.8604 12.1608H22.7391V8.23413H20.8773V8.69958L20.615 8.23413H18.7024V8.69958L18.4654 8.23413H15.8843C15.4527 8.23413 15.0719 8.29337 14.7673 8.46262V8.23413H12.9817V8.46262C12.787 8.29337 12.5162 8.23413 12.22 8.23413H5.72073L5.28914 9.24965L4.84062 8.23413H2.7842V8.69958L2.56417 8.23413H0.812412L0 10.0959V12.1523Z" fill="white"/>
<path d="M23.8562 14.2172H22.6375C22.5191 14.2172 22.4344 14.2257 22.3667 14.268C22.299 14.3103 22.2652 14.378 22.2652 14.4711C22.2652 14.5811 22.3244 14.6488 22.4091 14.6827C22.4768 14.7081 22.5529 14.7165 22.6714 14.7165L23.0353 14.725C23.3992 14.7335 23.6446 14.8012 23.7969 14.9535C23.8223 14.9789 23.8392 14.9958 23.8562 15.0212M23.8562 16.0706C23.6954 16.3075 23.3738 16.426 22.9422 16.426H21.6474V15.8251H22.9337C23.0607 15.8251 23.1538 15.8082 23.2045 15.7574C23.2553 15.7151 23.2807 15.6474 23.2807 15.5713C23.2807 15.4866 23.2469 15.4274 23.1961 15.3851C23.1453 15.3428 23.0776 15.3258 22.9591 15.3258C22.3329 15.3005 21.5459 15.3428 21.5459 14.4542C21.5459 14.048 21.8082 13.6164 22.5106 13.6164H23.8477V13.0579H22.6037C22.2313 13.0579 21.9605 13.1509 21.7659 13.2864V13.0579H19.9295C19.6333 13.0579 19.2948 13.134 19.1256 13.2864V13.0579H15.8505V13.2864C15.5882 13.1002 15.1481 13.0579 14.945 13.0579H12.7786V13.2864C12.5755 13.0832 12.11 13.0579 11.8308 13.0579H9.41046L8.86039 13.6587L8.34417 13.0579H4.74756V16.9761H8.2934L8.86039 16.3667L9.402 16.9761H11.5854V16.0536H11.7969C12.0847 16.0621 12.4316 16.0452 12.7278 15.9182V16.9761H14.5304V15.9521H14.615C14.725 15.9521 14.7335 15.9605 14.7335 16.0706V16.9761H20.2257C20.5727 16.9761 20.9366 16.883 21.1397 16.7222V16.9761H22.8745C23.2384 16.9761 23.5854 16.9253 23.8562 16.7983V16.0706ZM21.182 14.945C21.3089 15.0804 21.3851 15.2497 21.3851 15.5374C21.3851 16.1383 21.0043 16.426 20.3357 16.426H19.0325V15.8251H20.3357C20.4627 15.8251 20.5557 15.8082 20.6065 15.7574C20.6488 15.7151 20.6827 15.6474 20.6827 15.5713C20.6827 15.4866 20.6488 15.4274 20.5981 15.3851C20.5473 15.3428 20.4796 15.3258 20.3611 15.3258C19.7349 15.3005 18.9478 15.3428 18.9478 14.4542C18.9478 14.048 19.2017 13.6164 19.9041 13.6164H21.2497V14.2172H20.0226C19.9041 14.2172 19.8195 14.2257 19.7518 14.268C19.6756 14.3103 19.6502 14.378 19.6502 14.4711C19.6502 14.5811 19.7095 14.6488 19.7941 14.6827C19.8618 14.7081 19.938 14.7165 20.0564 14.7165L20.4203 14.725C20.7842 14.7335 21.0296 14.7927 21.182 14.945ZM15.1312 14.7758C15.0381 14.8265 14.9281 14.835 14.8012 14.835H13.9887V14.2088H14.8181C14.9366 14.2088 15.055 14.2088 15.1397 14.2596C15.2243 14.3019 15.2751 14.395 15.2751 14.5134C15.2751 14.6234 15.2243 14.725 15.1312 14.7758ZM15.5374 15.1227C15.6897 15.182 15.8082 15.2751 15.8674 15.3597C15.9605 15.4951 15.9775 15.622 15.9775 15.8759V16.4344H15.3005V16.0875C15.3005 15.9182 15.3174 15.6728 15.1904 15.5374C15.0889 15.4359 14.945 15.4105 14.6996 15.4105H13.9803V16.4344H13.3033V13.6249H14.8519C15.1904 13.6249 15.4359 13.6418 15.6559 13.7603C15.8674 13.8872 16.0028 14.0649 16.0028 14.3865C16.0113 14.8265 15.7151 15.055 15.5374 15.1227ZM16.3837 13.6249H18.6178V14.2088H17.0437V14.7165H18.5755V15.292H17.0437V15.8505H18.6178V16.4344H16.3837V13.6249ZM11.8646 14.9196H11.0014V14.2088H11.8731C12.1185 14.2088 12.2793 14.3103 12.2793 14.5557C12.2793 14.7927 12.1185 14.9196 11.8646 14.9196ZM10.3244 16.1721L9.29199 15.0297L10.3244 13.921V16.1721ZM7.66716 15.8421H6.01695V15.2835H7.48945V14.7081H6.01695V14.2003H7.70101L8.43726 15.0212L7.66716 15.8421ZM12.9986 14.5473C12.9986 15.3258 12.4147 15.4866 11.8308 15.4866H10.993V16.426H9.68973L8.86039 15.4951L8.00567 16.426H5.34841V13.6164H8.04798L8.87732 14.5388L9.73204 13.6164H11.8731C12.3978 13.6249 12.9986 13.7687 12.9986 14.5473Z" fill="white"/>
</g>
<defs>
<radialGradient id="paint0_radial_436_2562" cx="0" cy="0" r="1" gradientUnits="userSpaceOnUse" gradientTransform="translate(4.20995 4.20881) scale(22.3901)">
<stop stop-color="#9DD5F6"/>
<stop offset="0.0711" stop-color="#98D3F5"/>
<stop offset="0.1575" stop-color="#89CEF3"/>
<stop offset="0.2516" stop-color="#70C6EF"/>
<stop offset="0.3514" stop-color="#4EBBEA"/>
<stop offset="0.4546" stop-color="#23ADE3"/>
<stop offset="0.5" stop-color="#0DA6E0"/>
<stop offset="1" stop-color="#2E77BC"/>
</radialGradient>
<clipPath id="clip0_436_2562">
<rect width="24" height="23.9492" fill="white" transform="translate(0 0.0253906)"/>
</clipPath>
</defs>
</svg>
