<svg width="24" height="24" viewBox="0 0 24 24" fill="none" xmlns="http://www.w3.org/2000/svg">
<path fill-rule="evenodd" clip-rule="evenodd" d="M15.194 7.57002C15.5145 7.46274 15.8667 7.36369 16.2088 7.26745C16.3865 7.21747 16.5615 7.16824 16.728 7.11902C15.32 6.52302 13.552 5.89202 11.964 5.49402C11.8864 5.51641 11.7614 5.55057 11.6102 5.59187C11.2685 5.6852 10.7933 5.81502 10.43 5.92802C10.5151 5.9535 10.631 5.98525 10.7755 6.0248C11.5493 6.23667 13.1412 6.67255 15.194 7.57002ZM6.298 14.355C6.65944 14.5699 7.03501 14.8342 7.41167 15.0993C7.63631 15.2573 7.86134 15.4157 8.084 15.564C12.036 12.496 15.934 10.132 20.211 8.79702L20.0881 8.73371C19.5418 8.45222 19.0457 8.19658 18.424 7.89502C15.862 8.54502 11.477 10.295 6.298 14.355ZM13.606 8.12902C12.92 7.75002 10.538 6.86602 8.896 6.48702C8.409 6.66702 7.723 6.93802 7.254 7.13702L7.28698 7.14599C7.9272 7.32015 10.1024 7.91188 11.964 8.85102C12.409 8.63628 13.0202 8.37729 13.4801 8.18239L13.606 8.12902ZM11.964 18.506C15.754 15.257 21.077 12.099 24 10.962C23.3595 10.5617 22.7097 10.1766 22.051 9.80702C18.28 11.053 13.877 13.814 9.943 16.936C10.042 17.011 10.1419 17.0864 10.2423 17.1621C10.8181 17.5967 11.4113 18.0445 11.964 18.506ZM14.707 18.271L14.527 18.001H14.418V18.271H14.346V17.675H14.616C14.671 17.675 14.725 17.675 14.761 17.711C14.815 17.73 14.833 17.784 14.833 17.838C14.833 17.946 14.743 18 14.635 18L14.815 18.271H14.707ZM14.526 17.928C14.5372 17.928 14.5487 17.9283 14.5602 17.9286C14.6414 17.9305 14.725 17.9326 14.725 17.838C14.725 17.766 14.653 17.748 14.581 17.748H14.418V17.928H14.526ZM14.003 17.964C14.003 17.675 14.238 17.441 14.544 17.441C14.851 17.441 15.086 17.675 15.086 17.964C15.0857 18.1077 15.0285 18.2454 14.927 18.347C14.8254 18.4486 14.6877 18.5058 14.544 18.506C14.4726 18.5071 14.4017 18.4938 14.3356 18.4669C14.2695 18.4401 14.2094 18.4001 14.159 18.3496C14.1086 18.299 14.0689 18.2388 14.0423 18.1726C14.0157 18.1063 14.0016 18.0354 14.003 17.964ZM14.111 17.964C14.111 18.199 14.31 18.397 14.562 18.397C14.6177 18.397 14.6728 18.3861 14.7243 18.3647C14.7757 18.3434 14.8224 18.3122 14.8618 18.2728C14.9012 18.2335 14.9324 18.1867 14.9537 18.1353C14.975 18.0838 14.986 18.0287 14.986 17.973C14.986 17.9173 14.975 17.8622 14.9537 17.8108C14.9324 17.7593 14.9012 17.7126 14.8618 17.6732C14.8224 17.6338 14.7757 17.6026 14.7243 17.5813C14.6728 17.56 14.6177 17.549 14.562 17.549C14.292 17.549 14.112 17.748 14.112 17.964H14.111Z" fill="#E31836"/>
<path d="M5.54 7.89502C3.428 8.86902 1.209 10.205 0 10.98C0.168744 11.0576 0.337488 11.1295 0.51582 11.2055C0.795092 11.3246 1.09788 11.4536 1.461 11.63C4.132 9.82502 6.225 8.72502 7.055 8.36402C6.61553 8.20374 6.1957 8.08384 5.86079 7.98818C5.74226 7.95433 5.63437 7.92351 5.54 7.89502Z" fill="#0167B1"/>
<path d="M10.232 9.68102C9.672 9.41102 9.059 9.15802 8.589 8.94102C7.164 9.64502 5.305 10.71 2.959 12.388C3.464 12.658 4.006 12.983 4.583 13.308C6.388 11.973 8.21 10.71 10.232 9.68102Z" fill="#0167B1"/>
</svg>
