<svg width="24" height="24" viewBox="0 0 24 24" fill="none" xmlns="http://www.w3.org/2000/svg">
<path d="M16.2884 14.389C16.287 14.3904 16.2856 14.3904 16.2856 14.3918C15.2632 15.1337 14.0529 15.9131 12.7504 16.7313L12.6991 16.7618C12.6911 16.768 12.6857 16.7772 12.6842 16.7874C12.6826 16.7976 12.685 16.808 12.6908 16.8164C12.6966 16.8249 12.7053 16.8307 12.7152 16.8327C12.725 16.8346 12.7353 16.8326 12.7437 16.827L12.7869 16.8034C13.8919 16.2127 15.1605 15.5109 16.4372 14.7911C16.4439 14.7871 16.4506 14.7829 16.4574 14.7801C16.3848 14.6577 16.3281 14.5263 16.2884 14.389ZM22.9963 8.82108C21.3854 6.99882 11.0193 8.63798 6.61186 9.62546L6.50914 9.64761C6.50414 9.64847 6.49936 9.65034 6.49507 9.65312C6.49079 9.6559 6.48708 9.65952 6.48418 9.66378C6.48127 9.66805 6.47923 9.67286 6.47815 9.67794C6.47708 9.68302 6.47701 9.68827 6.47794 9.69338C6.48202 9.71553 6.5023 9.72944 6.52258 9.72525L6.62398 9.70446C10.2756 9.03752 17.8705 8.11378 19.5042 9.77521C20.0033 10.2828 19.8843 10.9345 19.3054 11.7056C19.6164 11.9109 19.8382 12.2339 19.9384 12.6375C22.1968 11.101 23.7128 9.63235 22.9961 8.82108H22.9963Z" fill="#D03027"/>
<path d="M16.9401 13.9106C16.9605 14.5513 17.3566 15.0769 17.8719 15.0769C18.8714 15.0769 19.2974 13.8177 19.2675 12.9773C19.2459 12.3352 18.8403 11.811 18.325 11.811C17.4662 11.8096 16.9104 13.0633 16.9401 13.9106ZM16.4127 13.8759C16.3761 12.7818 17.2119 11.6626 18.4263 11.6626C19.2379 11.6626 19.7693 12.2173 19.7991 13.0675C19.8383 14.2212 19.0567 15.2808 17.7867 15.2808C16.9726 15.2808 16.441 14.7274 16.4127 13.8759ZM4.91104 13.5875C4.86784 13.6041 4.81228 13.6207 4.74196 13.636C4.67296 13.6527 4.54588 13.6749 4.36192 13.7054C4.23472 13.7262 4.14688 13.7525 4.09684 13.7899C4.04956 13.826 4.02125 13.869 4.01297 13.923C4.00361 13.9799 4.02112 14.0243 4.06852 14.0604C4.11712 14.0951 4.19824 14.113 4.31332 14.113C4.39972 14.113 4.48372 14.0993 4.56484 14.0714C4.64728 14.0438 4.7176 14.0062 4.7704 13.9591C4.80964 13.9245 4.83796 13.8801 4.85956 13.826C4.87312 13.7899 4.89076 13.7109 4.91104 13.5875ZM5.96583 12.9149C5.96187 13.0147 5.94423 13.1035 5.91855 13.2575L5.73999 14.2849C5.72511 14.3766 5.75763 14.4474 5.84007 14.4972L5.83467 14.5374L4.81228 14.5361L4.8028 14.2752C4.649 14.3685 4.48401 14.4408 4.312 14.4903C4.14964 14.5334 4.01849 14.5513 3.82241 14.5513C3.49241 14.5513 3.30305 14.5166 3.17189 14.3988C3.03929 14.2782 2.97437 14.1977 2.98109 14.0312C2.98661 13.9356 3.03521 13.8122 3.10421 13.7262C3.17453 13.6388 3.27197 13.582 3.37601 13.5305C3.48161 13.4793 3.60593 13.4419 3.78581 13.4128C3.96701 13.3822 4.21864 13.3531 4.55536 13.324C4.73248 13.3088 4.84072 13.2672 4.89076 13.2464C4.96108 13.2186 4.9894 13.1867 4.99888 13.1285C5.01784 13.0231 4.98544 12.962 4.84744 12.9343C4.47964 12.8594 3.78857 12.9828 3.43289 13.073L3.62621 12.5377C4.0954 12.467 4.53508 12.4226 4.999 12.4226C5.73867 12.4226 5.97399 12.6375 5.96583 12.9149ZM8.93041 14.5361L9.28465 12.4822H10.2638L9.90948 14.536L8.93041 14.5361ZM9.33877 12.0065C9.36853 11.8373 9.62821 11.7014 9.91753 11.7014C10.2083 11.7014 10.4207 11.8387 10.3922 12.0065C10.361 12.1757 10.1028 12.3129 9.81073 12.3129C9.52129 12.3129 9.31033 12.1757 9.33877 12.0065ZM13.7403 13.5917C13.6957 13.6069 13.6389 13.6235 13.5699 13.6402C13.5009 13.6568 13.3739 13.6777 13.1899 13.7081C13.0641 13.729 12.9749 13.7553 12.9263 13.7927C12.8789 13.8274 12.8519 13.8717 12.8411 13.9244C12.8303 13.9814 12.8505 14.0271 12.8965 14.0617C12.9465 14.0964 13.0277 14.113 13.1425 14.113C13.2277 14.113 13.3117 14.1006 13.3941 14.0743C13.478 14.0451 13.547 14.0091 13.601 13.9619C13.6389 13.9272 13.6674 13.8815 13.6877 13.8288C13.7011 13.7941 13.7186 13.7151 13.7403 13.5917ZM14.7951 12.9177C14.7912 13.0189 14.7735 13.1077 14.7465 13.2602L14.5694 14.2892C14.5545 14.3793 14.5869 14.4514 14.6695 14.5014L14.6641 14.5374L13.6417 14.5388L13.6335 14.2767C13.4801 14.3708 13.315 14.4431 13.1426 14.4917C12.9803 14.536 12.8491 14.5541 12.6504 14.5541C12.3204 14.5541 12.1323 14.5208 12.0012 14.4015C11.8673 14.2795 11.8038 14.2004 11.8104 14.034C11.8146 13.937 11.8632 13.8135 11.9335 13.7289C12.004 13.6403 12.1013 13.5847 12.2067 13.5333C12.3122 13.482 12.4367 13.4447 12.6152 13.4141C12.7964 13.3851 13.0493 13.3546 13.386 13.3254C13.5619 13.3101 13.67 13.27 13.7201 13.2491C13.7917 13.2214 13.8188 13.1894 13.8296 13.1297C13.8473 13.0259 13.8161 12.9649 13.6795 12.9357C13.3089 12.8608 12.6206 12.9843 12.2649 13.0744L12.4569 12.5391C12.9276 12.4683 13.3657 12.4239 13.8296 12.4239C14.5667 12.4254 14.8019 12.6417 14.7951 12.9177ZM2.84861 13.7983C2.52942 13.8635 2.35098 13.8885 2.03586 13.8885C1.56786 13.8885 1.19598 13.6499 1.21626 13.213C1.23114 12.9218 1.56654 12.3089 2.41986 12.3089C2.68901 12.3089 2.89865 12.3573 3.18125 12.5225L3.30569 11.8096C2.92169 11.6613 2.66729 11.6391 2.3373 11.6418C1.2177 11.6544 0.143832 12.1758 0.00991283 13.2365C-0.125326 14.3141 1.15819 14.5846 1.72746 14.5819C2.05614 14.5804 2.39826 14.5666 2.71745 14.5333L2.84861 13.7983ZM10.8034 12.4712L10.8737 12.0523L11.8975 11.8234L11.788 12.4697H12.2895L12.195 12.883L11.7082 12.8817L11.412 14.5333C11.412 14.5333 10.4261 14.5264 10.422 14.5333L10.7168 12.8857H10.3463L10.422 12.4698H10.8034V12.4712ZM16.2657 11.6987L15.7897 14.5346L14.793 14.536L15.2947 11.6708L16.2657 11.6987ZM7.63478 12.9634C7.5092 12.9625 7.38691 13.0045 7.28714 13.0827C7.18442 13.1631 7.1195 13.2796 7.09382 13.4336C7.06262 13.6125 7.08158 13.7414 7.15058 13.8204C7.2209 13.8995 7.32098 13.9398 7.45346 13.9398C7.54274 13.9398 7.63466 13.923 7.70234 13.8885C7.78622 13.8427 7.8443 13.7954 7.89434 13.7193C7.94846 13.6402 7.98362 13.5514 8.00258 13.4488C8.03102 13.2865 8.00666 13.1658 7.93358 13.0854C7.86194 13.0051 7.76318 12.9634 7.63478 12.9634ZM5.85231 15.2447L6.32967 12.4933H7.18982L7.12346 12.8441C7.19786 12.7388 7.3169 12.6528 7.4819 12.5834C7.64822 12.5141 7.83482 12.4628 8.03774 12.4628C8.26214 12.4628 8.40014 12.4752 8.56789 12.5641C8.73421 12.6541 8.85193 12.7846 8.91409 12.9538C8.97889 13.1201 8.99257 13.3088 8.95729 13.5126C8.89921 13.8524 8.73829 14.1186 8.47322 14.3156C8.2109 14.5125 7.97414 14.5638 7.63742 14.5651C7.51838 14.5651 7.4183 14.5527 7.33586 14.5319C7.25474 14.5098 7.18982 14.4833 7.1411 14.4514C7.09382 14.4196 7.04378 14.3738 6.98018 14.3017L6.82059 15.2447H5.85231ZM23.625 13.2159C23.6196 13.0507 23.5384 12.9385 23.3721 12.9385C22.9704 12.9385 22.5431 13.7456 22.47 14.0701C23.1287 14.0714 23.6412 13.6693 23.625 13.2159ZM23.7114 14.4806L23.7886 14.5347C23.5925 14.9438 23.1936 15.2724 22.7256 15.2724C22.3428 15.2724 22.0278 15.0103 22.0116 14.5194C21.9804 13.6388 22.7852 12.822 23.4437 12.822C23.7264 12.822 23.9887 12.9481 23.9995 13.2602C24.0239 13.9606 23.0651 14.1741 22.4336 14.1893C22.4132 14.2628 22.4051 14.3364 22.4092 14.4472C22.42 14.7372 22.5904 14.9813 22.9448 14.9813C23.2504 14.9813 23.556 14.7288 23.7115 14.4805L23.7114 14.4806Z" fill="#004977"/>
<path d="M19.7842 13.1935C19.8517 13.1838 19.9613 13.1714 20.0086 13.1714C20.0803 13.1714 20.1479 13.1853 20.152 13.2587C20.1534 13.3018 20.0776 13.6137 20.0614 13.6859L19.9086 14.3765C19.8463 14.6594 19.7801 14.9549 19.7206 15.1892H20.1127L20.3332 14.095C21.0054 13.3766 21.265 13.1422 21.4232 13.1422C21.4949 13.1422 21.5436 13.1811 21.5477 13.2685C21.5518 13.3946 21.4746 13.6817 21.4489 13.765L21.2245 14.5623C21.173 14.7413 21.1353 14.9034 21.1393 15.0186C21.1461 15.1933 21.2488 15.2709 21.403 15.2709C21.6898 15.2709 21.898 14.9645 22.0792 14.6635L22.0264 14.565C21.9534 14.6856 21.783 14.9506 21.6491 14.9506C21.6071 14.9506 21.5666 14.9215 21.5652 14.8494C21.5612 14.7565 21.599 14.6164 21.6262 14.5235L21.8764 13.5888C21.9439 13.3308 21.975 13.1658 21.9737 13.0771C21.967 12.9024 21.8681 12.8206 21.7153 12.8206C21.4571 12.8206 21.115 13.0146 20.3887 13.8703H20.3779L20.4699 13.4529C20.5199 13.224 20.5685 12.9856 20.6146 12.8204C20.3629 12.9135 20.0033 13.0174 19.7814 13.0619L19.7842 13.1935Z" fill="#004977"/>
</svg>
