<svg width="24" height="24" viewBox="0 0 24 24" fill="none" xmlns="http://www.w3.org/2000/svg">
<g clip-path="url(#clip0_436_2536)">
<path d="M0 15.4143C0 15.8823 0.38 16.2643 0.848 16.2643H6.785V0.574319L0 7.71932V15.4143ZM15.416 23.9963C15.883 23.9963 16.262 23.6163 16.262 23.1473V17.2103H0.573L7.719 23.9953L15.416 23.9963ZM24 8.58632C24.0003 8.47506 23.9785 8.36485 23.936 8.26202C23.8936 8.15919 23.8312 8.06578 23.7524 7.98716C23.6737 7.90854 23.5802 7.84625 23.4774 7.80389C23.3745 7.76153 23.2643 7.73992 23.153 7.74032H17.215V23.4293L23.997 16.2813L24 8.58632ZM8.585 0.00231934C8.36036 0.00231934 8.14492 0.0915565 7.98608 0.2504C7.82724 0.409243 7.738 0.624681 7.738 0.849319V6.78932H23.426L16.282 0.00231934H8.585Z" fill="#0079C0"/>
</g>
<defs>
<clipPath id="clip0_436_2536">
<rect width="24" height="24" fill="white"/>
</clipPath>
</defs>
</svg>
