<svg width="24" height="24" viewBox="0 0 24 24" fill="none" xmlns="http://www.w3.org/2000/svg">
<path d="M21.6879 8.79095C20.209 6.56318 17.4851 5 14.5741 5C11.7004 5 8.97655 6.52574 7.45081 8.79095H9.48201C10.8673 7.35881 12.6739 6.57254 14.5647 6.57254C16.4274 6.57254 18.2527 7.35881 19.6474 8.79095H21.6879Z" fill="#E30613"/>
<path d="M6.60842 16.3167L6.57098 16.3541C5.94384 16.9906 5.22309 17.3369 4.47426 17.3369C2.91108 17.3369 1.78783 16.1669 1.78783 14.5475C1.78783 12.9282 2.92044 11.7582 4.47426 11.7582C5.22309 11.7582 5.94384 12.0951 6.57098 12.741L6.60842 12.7784L7.60998 11.5616L7.5819 11.5335C6.75819 10.5319 5.75663 10.0546 4.52106 10.0546C3.28549 10.0546 2.16225 10.4664 1.34789 11.2153C0.468019 12.039 0 13.1809 0 14.5475C0 15.9048 0.468019 17.0561 1.34789 17.8705C2.16225 18.6287 3.29485 19.0405 4.52106 19.0405C5.74727 19.0405 6.74883 18.5538 7.5819 17.5709L7.60998 17.5335L6.60842 16.3167Z" fill="#004380"/>
<path d="M8.63025 18.8721H10.3994V17.9641V10.2043H8.63025V18.8721Z" fill="#004380"/>
<path d="M17.3354 16.9813C16.858 17.2715 16.4181 17.4119 16.0249 17.4119C15.4539 17.4119 15.2012 17.1124 15.2012 16.4291V11.8331H16.9984V10.2044H15.2012V7.49927L13.4602 8.43531V10.2044H11.9625V11.8331H13.4602V16.7286C13.4602 18.0671 14.2465 18.9751 15.4259 18.9938C16.2215 19.0032 16.7082 18.7692 16.9984 18.5913L17.0171 18.582L17.4477 16.9064L17.3354 16.9813Z" fill="#004380"/>
<path d="M18.8049 18.8721H20.574V17.4118V10.2043H18.8049V18.8721Z" fill="#004380"/>
<path d="M23.4103 8.15441C23.4103 8.23865 23.3541 8.27609 23.2699 8.27609H23.0359V8.02336H23.2699C23.3541 8.03272 23.4103 8.07016 23.4103 8.15441ZM23.5601 8.15441C23.5601 7.9672 23.429 7.89232 23.2699 7.89232H22.8861V8.77219H23.0359V8.43522H23.2044L23.3729 8.77219H23.5507L23.3729 8.4165C23.4945 8.37905 23.5601 8.28545 23.5601 8.15441ZM23.869 8.34161C23.869 8.72539 23.5788 9.01556 23.195 9.01556C22.8112 9.01556 22.5211 8.72539 22.5211 8.34161C22.5211 7.95784 22.8112 7.66767 23.195 7.66767C23.5788 7.65831 23.869 7.95784 23.869 8.34161ZM24 8.34161C24 7.88295 23.6537 7.53662 23.195 7.53662C22.7363 7.53662 22.39 7.88295 22.39 8.34161C22.39 8.80027 22.7363 9.14661 23.195 9.14661C23.6537 9.14661 24 8.80027 24 8.34161Z" fill="#004380"/>
</svg>
