<svg width="24" height="25" viewBox="0 0 24 25" fill="none" xmlns="http://www.w3.org/2000/svg">
<path d="M11.7322 23.5526C18.2117 23.5526 23.4644 18.2801 23.4644 11.7763C23.4644 5.27242 18.2117 0 11.7322 0C5.25269 0 0 5.27242 0 11.7763C0 18.2801 5.25269 23.5526 11.7322 23.5526Z" fill="#8B371E"/>
<mask id="mask0_436_2568" style="mask-type:alpha" maskUnits="userSpaceOnUse" x="0" y="0" width="24" height="24">
<path d="M11.7322 23.5526C18.2117 23.5526 23.4644 18.2801 23.4644 11.7763C23.4644 5.27242 18.2117 0 11.7322 0C5.25269 0 0 5.27242 0 11.7763C0 18.2801 5.25269 23.5526 11.7322 23.5526Z" fill="url(#paint0_linear_436_2568)"/>
</mask>
<g mask="url(#mask0_436_2568)">
<g filter="url(#filter0_f_436_2568)">
<path fill-rule="evenodd" clip-rule="evenodd" d="M25.8911 7.49309C31.7616 14.1393 31.8586 23.6502 26.0938 28.7362C20.3379 33.8222 10.9063 32.5706 5.03581 25.9244C-0.834696 19.2782 -0.922842 9.76725 4.83308 4.68124C10.5978 -0.413585 20.0206 0.8469 25.8911 7.49309Z" fill="url(#paint1_linear_436_2568)"/>
</g>
</g>
<defs>
<filter id="filter0_f_436_2568" x="-3.42615" y="-2.44751" width="37.7826" height="38.3087" filterUnits="userSpaceOnUse" color-interpolation-filters="sRGB">
<feFlood flood-opacity="0" result="BackgroundImageFix"/>
<feBlend mode="normal" in="SourceGraphic" in2="BackgroundImageFix" result="shape"/>
<feGaussianBlur stdDeviation="2" result="effect1_foregroundBlur_436_2568"/>
</filter>
<linearGradient id="paint0_linear_436_2568" x1="6.75615" y1="1.11332" x2="16.7028" y2="22.444" gradientUnits="userSpaceOnUse">
<stop offset="0.3831" stop-color="#E35E26"/>
<stop offset="1" stop-color="#F9A121"/>
</linearGradient>
<linearGradient id="paint1_linear_436_2568" x1="9.1492" y1="2.98517" x2="22.0621" y2="30.2985" gradientUnits="userSpaceOnUse">
<stop offset="0.3831" stop-color="#E35E26"/>
<stop offset="1" stop-color="#F9A121"/>
</linearGradient>
</defs>
</svg>
