<svg width="121" height="33" viewBox="0 0 121 33" fill="none" xmlns="http://www.w3.org/2000/svg">
<path d="M68.48 10.92C68.48 7.44 68.54 4.20001 68.72 1.20001L59.54 2.94001V3.78001L60.44 3.90001C61.1 3.96001 61.52 4.20001 61.76 4.56001C62 4.98001 62.18 5.58001 62.3 6.48C62.42 8.22 62.54 12.18 62.48 18.42C62.48 24.6 62.42 28.5 62.3 30C65.6 30.72 68.18 31.02 70.1 31.02C73.7 31.02 76.52 30 78.56 27.9C80.6 25.86 81.68 22.98 81.68 19.44C81.68 16.62 80.9 14.28 79.34 12.42C77.78 10.56 75.8 9.66 73.46 9.66C71.9 9.66 70.28 10.08 68.48 10.92ZM68.66 29.4C68.54 27.48 68.42 21.72 68.42 12.3C68.96 12.12 69.68 12 70.58 12C72.02 12 73.16 12.72 74 14.22C74.84 15.72 75.26 17.52 75.26 19.8C75.26 22.62 74.78 24.9 73.82 26.82C72.86 28.68 71.66 29.64 70.16 29.64C69.68 29.52 69.2 29.46 68.66 29.4ZM25.1 1.80001H1.09998V3.00001L2.35998 3.12001C3.31998 3.30001 3.97998 3.66001 4.39998 4.20001C4.81998 4.80001 5.05998 5.76001 5.11998 7.08C5.59998 13.56 5.59998 19.62 5.11998 25.2C4.99998 26.52 4.75998 27.48 4.39998 28.08C3.97998 28.68 3.31998 29.04 2.35998 29.16L1.09998 29.34V30.54H16.58V29.34L14.96 29.22C14 29.1 13.34 28.68 12.92 28.14C12.5 27.54 12.26 26.58 12.2 25.26C12.02 22.86 11.9 20.1 11.9 17.04L15.14 17.1C16.88 17.16 18.08 18.48 18.68 21.12H19.88V11.34H18.68C18.08 13.92 16.94 15.24 15.14 15.3L11.9 15.36C11.9 9.96 12.02 6.12001 12.2 3.78001H16.94C20.3 3.78001 22.58 5.94001 23.9 10.26L25.34 9.84L25.1 1.80001ZM22.28 20.28C22.28 23.4 23.18 25.98 24.92 28.02C26.66 30.06 29.24 31.02 32.48 31.02C35.72 31.02 38.36 30 40.28 27.9C42.2 25.86 43.1 23.28 43.1 20.16C43.1 17.04 42.2 14.46 40.46 12.42C38.72 10.38 36.14 9.42 32.9 9.42C29.66 9.42 27.02 10.44 25.1 12.54C23.18 14.58 22.28 17.16 22.28 20.28ZM35.66 13.44C36.38 15.18 36.68 17.46 36.68 20.22C36.68 26.58 35.36 29.7 32.78 29.7C31.46 29.7 30.44 28.8 29.72 27C29 25.2 28.7 22.92 28.7 20.22C28.7 13.92 30.02 10.8 32.6 10.8C33.92 10.74 34.94 11.64 35.66 13.44ZM86.36 28.02C88.34 30 90.86 31.02 93.86 31.02C95.72 31.02 97.34 30.66 98.78 29.88C100.22 29.16 101.36 28.26 102.14 27.18L101.54 26.46C100.22 27.48 98.72 27.96 96.98 27.96C94.58 27.96 92.72 27.18 91.46 25.56C90.14 23.94 89.54 21.9 89.66 19.26H102.5C102.5 16.38 101.78 14.04 100.28 12.18C98.78 10.38 96.68 9.48 93.98 9.48C90.62 9.48 88.04 10.56 86.18 12.66C84.32 14.76 83.42 17.34 83.42 20.4C83.42 23.52 84.38 26.04 86.36 28.02ZM90.8 12.96C91.46 11.52 92.3 10.8 93.44 10.8C95.24 10.8 96.14 13.08 96.14 17.7L89.78 17.82C89.84 16.02 90.14 14.4 90.8 12.96ZM118.64 10.56C117.02 9.84 114.98 9.42 112.52 9.42C110 9.42 108.02 10.08 106.52 11.34C105.02 12.6 104.24 14.16 104.24 16.02C104.24 17.64 104.72 18.9 105.62 19.8C106.52 20.7 107.96 21.48 109.82 22.14C111.5 22.74 112.7 23.34 113.3 23.88C113.9 24.48 114.26 25.14 114.26 26.04C114.26 26.88 113.96 27.66 113.3 28.26C112.7 28.92 111.86 29.22 110.78 29.22C108.14 29.22 106.16 27.3 104.78 23.46L103.76 23.76L104 29.76C106.16 30.6 108.56 31.02 111.2 31.02C113.96 31.02 116.06 30.42 117.62 29.16C119.18 27.96 119.96 26.22 119.96 24.06C119.96 22.62 119.6 21.42 118.82 20.52C118.04 19.62 116.78 18.84 114.98 18.12C113 17.4 111.62 16.74 110.9 16.14C110.18 15.54 109.82 14.82 109.82 13.92C109.82 13.02 110.06 12.3 110.6 11.7C111.14 11.1 111.8 10.86 112.64 10.86C115.04 10.86 116.78 12.6 117.86 16.02L118.88 15.72L118.64 10.56ZM60.92 10.02C60.08 9.6 59.18 9.42 58.16 9.42C57.14 9.42 56.12 9.84 54.98 10.68C53.84 11.52 53 12.66 52.34 14.22L52.4 9.42L43.28 11.22V12.06L44.18 12.12C45.32 12.24 45.98 13.14 46.1 14.76C46.46 18.48 46.46 22.44 46.1 26.64C45.98 28.26 45.32 29.1 44.18 29.28L43.28 29.4V30.54H56V29.4L54.38 29.28C53.24 29.16 52.58 28.26 52.46 26.64C52.1 23.16 52.04 19.44 52.34 15.6C52.7 15 53.48 14.64 54.68 14.52C55.88 14.4 57.26 14.76 58.7 15.6L60.92 10.02Z" fill="#CCCCD2"/>
</svg>
