<svg width="24" height="25" viewBox="0 0 24 25" fill="none" xmlns="http://www.w3.org/2000/svg">
<path fill-rule="evenodd" clip-rule="evenodd" d="M8.75488 18.2479H15.2451V6.58582H8.75488V18.2479Z" fill="#FF5F00"/>
<path fill-rule="evenodd" clip-rule="evenodd" d="M9.16712 12.4168C9.16712 10.0511 10.2749 7.94356 12 6.5858C10.6943 5.55622 9.07926 4.99747 7.41644 5.00001C3.32013 5.00001 0 8.32088 0 12.4168C0 16.5131 3.32013 19.8336 7.41644 19.8336C9.14669 19.8336 10.7384 19.2413 12 18.2478C10.2749 16.8897 9.16712 14.7825 9.16712 12.4168Z" fill="#EB001B"/>
<path fill-rule="evenodd" clip-rule="evenodd" d="M24 12.4168C24 16.5131 20.6795 19.8336 16.5836 19.8336C14.9207 19.8362 13.3057 19.2775 12 18.2478C13.7251 16.8901 14.8329 14.7829 14.8329 12.4168C14.8329 10.0511 13.7251 7.94393 12 6.5858C13.3057 5.55617 14.9207 4.99741 16.5836 5.00001C20.6795 5.00001 24 8.32051 24 12.4168Z" fill="#F79E1B"/>
</svg>
