<svg width="24" height="25" viewBox="0 0 24 25" fill="none" xmlns="http://www.w3.org/2000/svg">
<path d="M9.112 8.68109L5.97 16.1771H3.92L2.374 10.1941C2.28 9.82609 2.199 9.69109 1.913 9.53609C1.447 9.28309 0.677 9.04609 0 8.89809L0.046 8.68109H3.346C3.56165 8.68088 3.77027 8.75776 3.93421 8.89786C4.09815 9.03796 4.2066 9.23205 4.24 9.44509L5.057 13.7831L7.075 8.68109H9.112ZM17.145 13.7301C17.153 11.7511 14.409 11.6421 14.428 10.7581C14.434 10.4891 14.69 10.2031 15.25 10.1301C15.9063 10.0678 16.5672 10.1838 17.163 10.4661L17.503 8.87609C16.923 8.65804 16.3087 8.54527 15.689 8.54309C13.772 8.54309 12.423 9.56309 12.411 11.0221C12.399 12.1011 13.374 12.7021 14.109 13.0621C14.865 13.4291 15.119 13.6651 15.115 13.9931C15.11 14.4971 14.513 14.7181 13.955 14.7271C12.98 14.7421 12.415 14.4641 11.963 14.2541L11.612 15.8961C12.065 16.1041 12.901 16.2861 13.768 16.2941C15.805 16.2941 17.138 15.2881 17.145 13.7301ZM22.206 16.1771H24L22.435 8.68109H20.779C20.6021 8.67945 20.4287 8.73101 20.2814 8.82908C20.1341 8.92715 20.0197 9.06721 19.953 9.23109L17.044 16.1771H19.08L19.485 15.0571H21.973L22.206 16.1771ZM20.043 13.5211L21.063 10.7061L21.651 13.5211H20.043ZM11.883 8.68109L10.28 16.1771H8.34L9.945 8.68109H11.883Z" fill="#1434CB"/>
</svg>
