<svg width="24" height="24" viewBox="0 0 24 24" fill="none" xmlns="http://www.w3.org/2000/svg">
<g clip-path="url(#clip0_436_2545)">
<path d="M24 0H0V24H24V0Z" fill="#CA0538"/>
<path d="M15.1939 11.0884V10.6977H15.2493C15.5446 10.6977 15.6923 10.6605 15.6923 10.3628V8.31628C15.6923 8.01861 15.5446 7.9814 15.2493 7.9814H15.0277V7.5907H17.1139V8H16.8554C16.5231 8 16.4677 8.03721 16.4677 8.31628V10.6791H17.317C17.7231 10.6791 17.9631 10.6233 18.0739 10.4186C18.1662 10.2326 18.2216 10.0279 18.2216 9.69302C18.2769 9.69302 18.6277 9.69302 18.6277 9.69302V11.107H15.1939M11.317 11.0884V10.6977H11.52C11.8154 10.6977 11.9446 10.6605 11.9446 10.3628V8.31628C11.9446 8.01861 11.7785 7.9814 11.4831 7.9814H11.2985V7.5907H13.3846V8H13.1262C12.7939 8 12.7385 8.03721 12.7385 8.31628V10.6791H13.5877C13.9939 10.6791 14.2339 10.6233 14.3446 10.4186C14.4554 10.2326 14.4923 10.0279 14.4923 9.69302C14.5662 9.69302 14.8985 9.69302 14.8985 9.69302V11.107H11.317V11.0884ZM7.21849 11.0884V10.6977H7.42157C7.71695 10.6977 7.8831 10.6605 7.8831 10.3814C7.8831 8.33488 7.8831 10.3814 7.8831 8.31628C7.8831 8.03721 7.71695 8 7.42157 8H7.21849V7.6093C10.9662 7.6093 7.21849 7.6093 10.9662 7.6093V8.96744H10.5785C10.56 8.14884 10.3754 8.01861 9.65541 8.01861H8.67695V9.06047H8.93541C9.37849 9.06047 9.43387 8.91163 9.4708 8.3907H9.87695V10.1581H9.4708C9.43387 9.56279 9.37849 9.46977 8.95387 9.46977H8.67695V10.6791H9.78464C10.4123 10.6791 10.56 10.3814 10.6154 9.69302H11.0031V11.107H7.21849V11.0884ZM7.36618 8C7.08926 8 6.97849 8.11163 6.86772 8.42791L5.8708 11.0884H5.2431L4.44926 9.15349L3.69234 11.0884H3.04618L2.01234 8.46512C1.90157 8.16744 1.71695 8 1.45849 8H1.38464V7.6093H3.13849V8H2.97234C2.76926 8 2.69541 8.05581 2.69541 8.16744C2.69541 8.18605 2.69541 8.22326 2.71387 8.27907C2.71387 8.27907 3.12003 9.22791 3.43387 10.1767C3.4708 10.1767 3.48926 10.1767 3.48926 10.1767L4.17234 8.42791C4.13541 8.14884 4.0431 8 3.74772 8H3.50772V7.6093H5.35387V8H5.05849C4.89234 8 4.81849 8.03721 4.81849 8.14884C4.81849 8.18605 4.81849 8.24186 4.85541 8.29767C4.85541 8.29767 5.28003 9.32093 5.57541 10.1953C5.61234 10.1953 5.61234 10.1953 5.61234 10.1953L6.27695 8.42791C6.31387 8.31628 6.31387 8.22326 6.31387 8.16744C6.31387 8.05581 6.22157 8.01861 6.01849 8.01861H5.77849V7.62791H7.45849V8H7.36618Z" fill="#FBBA07"/>
<path d="M22.1723 10.0651C22.1723 10.8651 21.5446 11.1441 20.6215 11.1441C20.0677 11.1441 19.5323 10.8279 19.4031 10.7162L19.2923 11.0883H18.9415V9.69298H19.3477C19.4585 10.3627 19.9015 10.6604 20.5477 10.679C21.1015 10.6976 21.4892 10.5488 21.5261 10.1767C21.5815 9.73019 21.1015 9.7674 20.6954 9.69298L20.1046 9.58135C19.2185 9.43251 18.9231 9.17205 18.9046 8.5767C18.8861 7.94414 19.4585 7.51624 20.2338 7.51624C20.6031 7.51624 21.1015 7.57205 21.4708 7.86972L21.6369 7.57205H21.9508V8.79996H21.5631C21.4708 8.13019 20.8246 7.92554 20.2523 7.92554C19.8461 7.94414 19.5692 8.186 19.5692 8.46507C19.5692 8.72554 19.8277 8.76275 20.16 8.81856L20.88 8.94879C21.6 9.07903 22.1723 9.22786 22.1723 10.0651Z" fill="#FBBA07"/>
<path d="M5.55695 14.1953C5.55695 13.9348 5.52002 13.693 5.40926 13.4883C5.29849 13.2837 5.05849 13.2465 4.63387 13.2465H3.76618V14.2883H4.06156C4.50464 14.2883 4.56002 14.2139 4.56002 13.6744H4.87387V15.4232H4.54156C4.54156 14.8465 4.46772 14.7162 4.0431 14.7162H3.76618V15.6279C3.76618 15.9255 3.8031 15.9441 4.11695 15.9441H4.5231V16.3348H2.40002V15.9441H2.6031C2.89849 15.9441 3.00926 15.9069 3.00926 15.6279C3.00926 13.5813 3.00926 15.6279 3.00926 13.5627C3.00926 13.2837 2.89849 13.2465 2.6031 13.2465H2.40002V12.8372C5.9631 12.8372 2.40002 12.8372 5.9631 12.8372V14.1953H5.55695Z" fill="#FBBA07"/>
<path d="M7.60619 16.3348V15.9441H7.97542C8.1785 15.9441 8.2708 15.9255 8.2708 15.7953C8.2708 15.7581 8.25234 15.6837 8.21542 15.6279L8.06773 15.2186H6.72004L6.55388 15.6465C6.51696 15.7209 6.51696 15.7581 6.51696 15.8139C6.51696 15.9255 6.60927 15.9255 6.79388 15.9255H7.16311V16.3162H5.35388V15.9255H5.52004C5.79696 15.9255 5.87081 15.8325 5.98157 15.5906L7.10773 12.8372H7.95696L9.06465 15.5906C9.15696 15.8511 9.28619 15.9255 9.4708 15.9255H9.63696V16.3162H7.60619M7.42157 13.4697L6.90465 14.8093H7.95696L7.42157 13.4697Z" fill="#FBBA07"/>
<path d="M13.5693 15.5162C13.5693 16.1488 13.2739 16.4093 12.8677 16.4093C12.3877 16.4093 12.0739 16.279 12.0554 15.7953L12.0369 15.386C12.0185 14.8093 11.8339 14.679 11.2246 14.679H10.8739V15.6093C10.8739 15.9069 10.9108 15.9255 11.2246 15.9255H11.5385V16.3162H9.41541V15.9255H9.72925C9.93233 15.9255 10.0985 15.8511 10.0985 15.5906V13.5441C10.0985 13.2651 10.0616 13.2279 9.74771 13.2279H9.47079V12.8372H11.8523C12.7385 12.8372 13.1446 13.0976 13.1446 13.6744C13.1446 14.1767 12.7569 14.493 12.0923 14.5674C12.7016 14.7162 12.7939 14.9395 12.8308 15.4046C12.8308 15.4418 12.8308 15.5534 12.8308 15.6279C12.8493 15.8325 12.9231 15.9255 13.0339 15.9255C13.2369 15.9069 13.2554 15.7581 13.2369 15.3488H13.5693C13.5693 15.4046 13.5693 15.4604 13.5693 15.5162ZM12.3508 13.7674C12.3508 13.3581 12.1108 13.2465 11.6308 13.2465H10.8923V14.3069H11.6493C12.1108 14.2883 12.3508 14.1395 12.3508 13.7674Z" fill="#FBBA07"/>
<path d="M16.6523 13.9534C16.4862 13.4325 16.1354 13.1906 15.5631 13.1906C14.9908 13.1906 14.5477 13.6557 14.5662 14.5487C14.5662 15.4604 14.9169 15.9441 15.5631 15.9441C16.0246 15.9441 16.4493 15.7022 16.4493 15.3115V15.1255C16.4493 14.8836 16.3939 14.8836 16.0616 14.8836H15.8954V14.4743H17.5016V14.8836H17.3723C17.1139 14.8836 17.0769 14.865 17.0769 15.1627V16.3348H16.8L16.6154 16.0371C16.3016 16.2976 15.84 16.4092 15.4339 16.4092C14.9539 16.4092 14.5477 16.2418 14.2339 15.9069C13.9016 15.5534 13.6985 15.0883 13.6985 14.5487C13.6985 14.0092 13.8646 13.5813 14.2154 13.2278C14.5108 12.9301 14.9723 12.7627 15.4339 12.7627C15.8216 12.7627 16.2831 12.8743 16.5416 13.1348L16.7262 12.7813H17.0031V13.9534H16.6523Z" fill="#FBBA07"/>
<path d="M19.8277 16.3906C18.6831 16.3906 17.7784 15.665 17.7784 14.5673C17.7784 13.4697 18.6646 12.7627 19.8092 12.7627C20.9538 12.7627 21.8215 13.4697 21.8215 14.586C21.84 15.665 20.9723 16.3906 19.8277 16.3906ZM20.9907 14.586C20.9907 13.6743 20.4923 13.1906 19.8092 13.1906C19.1261 13.1906 18.6277 13.6743 18.6277 14.586C18.6277 15.4976 19.1446 15.9813 19.8092 15.9813C20.4738 15.9813 20.9723 15.4976 20.9907 14.586Z" fill="#FBBA07"/>
</g>
<defs>
<clipPath id="clip0_436_2545">
<rect width="24" height="24" fill="white"/>
</clipPath>
</defs>
</svg>
