<svg width="25" height="24" viewBox="0 0 25 24" fill="none" xmlns="http://www.w3.org/2000/svg">
<path d="M9.27999 21.69L11.61 19.73C11.96 19.43 12.54 19.43 12.89 19.73L15.22 21.69C15.76 21.96 16.42 21.69 16.62 21.11L17.06 19.78C17.17 19.46 17.06 18.99 16.82 18.75L14.55 16.47C14.38 16.31 14.25 15.99 14.25 15.76V12.91C14.25 12.49 14.56 12.29 14.95 12.45L19.86 14.57C20.63 14.9 21.26 14.49 21.26 13.65V12.36C21.26 11.69 20.76 10.92 20.14 10.66L14.55 8.24999C14.4643 8.20601 14.3916 8.14045 14.339 8.05978C14.2864 7.97912 14.2557 7.88613 14.25 7.78999V4.78999C14.25 3.84999 13.56 2.73999 12.72 2.30999C12.42 2.15999 12.07 2.15999 11.77 2.30999C10.93 2.73999 10.24 3.85999 10.24 4.79999V7.79999C10.24 7.97999 10.1 8.18999 9.93999 8.25999L4.35999 10.67C3.73999 10.92 3.23999 11.69 3.23999 12.36V13.65C3.23999 14.49 3.86999 14.9 4.63999 14.57L9.54999 12.45C9.92999 12.28 10.25 12.49 10.25 12.91V15.76C10.25 15.99 10.12 16.31 9.95999 16.47L7.68999 18.75C7.44999 18.99 7.33999 19.45 7.44999 19.78L7.88999 21.11C8.06999 21.69 8.72999 21.97 9.27999 21.69Z" stroke="#296BEF" stroke-width="2" stroke-linecap="round" stroke-linejoin="round"/>
</svg>
