<svg width="40" height="40" viewBox="0 0 40 40" fill="none" xmlns="http://www.w3.org/2000/svg">
<path d="M25.3233 12.6167C26.135 12.345 27.0683 12.105 27.88 11.865C25.5333 10.8717 22.5867 9.82001 19.94 9.15668C19.5183 9.27834 18.2567 9.60834 17.3833 9.88001C18.285 10.15 21.2633 10.8417 25.3233 12.6167ZM10.4967 23.925C11.4583 24.4967 12.48 25.2783 13.4733 25.94C20.06 20.8267 26.5567 16.8867 33.685 14.6617C32.6917 14.15 31.82 13.6983 30.7067 13.1583C26.4367 14.2417 19.1283 17.1583 10.4967 23.925ZM9.23333 13.1583C5.71333 14.7817 2.015 17.0083 0 18.3C0.721667 18.6317 1.44333 18.9017 2.435 19.3833C6.88667 16.375 10.375 14.5417 11.7583 13.94C10.7667 13.5783 9.835 13.34 9.23333 13.1583ZM22.6767 13.5483C21.5333 12.9167 17.5633 11.4433 14.8267 10.8117C14.015 11.1117 12.8717 11.5633 12.09 11.895C13.0817 12.165 16.7817 13.1583 19.94 14.7517C20.7517 14.36 21.895 13.88 22.6767 13.5483ZM17.0533 16.135C16.12 15.685 15.0983 15.2633 14.315 14.9017C11.94 16.075 8.84167 17.85 4.93167 20.6467C5.77333 21.0967 6.67667 21.6383 7.63833 22.18C10.6467 19.955 13.6833 17.85 17.0533 16.135ZM19.94 30.8433C26.2567 25.4283 35.1283 20.165 40 18.27C38.9325 17.6029 37.8494 16.961 36.7517 16.345C30.4667 18.4217 23.1283 23.0233 16.5717 28.2267C17.6833 29.0683 18.8583 29.94 19.94 30.8433ZM24.6917 30.4517H24.5117L24.2117 30.0017H24.03V30.4517H23.91V29.4583H24.36C24.4517 29.4583 24.5417 29.4583 24.6017 29.5183C24.6917 29.55 24.7217 29.64 24.7217 29.73C24.7217 29.91 24.5717 30 24.3917 30L24.6917 30.4517ZM24.21 29.88C24.36 29.88 24.5417 29.91 24.5417 29.73C24.5417 29.61 24.4217 29.58 24.3017 29.58H24.03V29.88H24.21ZM23.3383 29.94C23.3383 29.4583 23.73 29.0683 24.24 29.0683C24.7517 29.0683 25.1433 29.4583 25.1433 29.94C25.1429 30.1795 25.0476 30.409 24.8783 30.5783C24.709 30.7476 24.4794 30.8429 24.24 30.8433C24.121 30.8452 24.0029 30.823 23.8927 30.7782C23.7824 30.7334 23.6824 30.6669 23.5984 30.5826C23.5144 30.4983 23.4482 30.398 23.4039 30.2876C23.3595 30.1772 23.3361 30.059 23.3383 29.94ZM23.5183 29.94C23.5183 30.3317 23.85 30.6617 24.27 30.6617C24.3628 30.6617 24.4547 30.6434 24.5404 30.6079C24.6262 30.5724 24.7041 30.5203 24.7697 30.4547C24.8353 30.3891 24.8874 30.3112 24.9229 30.2254C24.9584 30.1397 24.9767 30.0478 24.9767 29.955C24.9767 29.8622 24.9584 29.7703 24.9229 29.6846C24.8874 29.5988 24.8353 29.5209 24.7697 29.4553C24.7041 29.3897 24.6262 29.3377 24.5404 29.3021C24.4547 29.2666 24.3628 29.2483 24.27 29.2483C23.82 29.2483 23.52 29.58 23.52 29.94" fill="#CCCCD2"/>
</svg>
