<svg width="24" height="24" viewBox="0 0 24 24" fill="none" xmlns="http://www.w3.org/2000/svg">
<path d="M3.17001 7.44L12 12.55L20.77 7.47M12 21.61V12.54" stroke="black" stroke-width="2" stroke-linecap="round" stroke-linejoin="round"/>
<path d="M9.93001 2.48L4.59001 5.45C3.38001 6.12 2.39001 7.8 2.39001 9.18V14.83C2.39001 16.21 3.38001 17.89 4.59001 18.56L9.93001 21.53C11.07 22.16 12.94 22.16 14.08 21.53L19.42 18.56C20.63 17.89 21.62 16.21 21.62 14.83V9.18C21.62 7.8 20.63 6.12 19.42 5.45L14.08 2.48C12.93 1.84 11.07 1.84 9.93001 2.48Z" stroke="black" stroke-width="2" stroke-linecap="round" stroke-linejoin="round"/>
<path d="M17 13.24V9.58L7.51001 4.1" stroke="black" stroke-width="2" stroke-linecap="round" stroke-linejoin="round"/>
</svg>
