<svg width="25" height="24" viewBox="0 0 25 24" fill="none" xmlns="http://www.w3.org/2000/svg">
<path d="M3.92004 7.44L12.75 12.55L21.52 7.47M12.75 21.61V12.54" stroke="#296BEF" stroke-width="2" stroke-linecap="round" stroke-linejoin="round"/>
<path d="M10.68 2.48L5.34001 5.45C4.13001 6.12 3.14001 7.8 3.14001 9.18V14.83C3.14001 16.21 4.13001 17.89 5.34001 18.56L10.68 21.53C11.82 22.16 13.69 22.16 14.83 21.53L20.17 18.56C21.38 17.89 22.37 16.21 22.37 14.83V9.18C22.37 7.8 21.38 6.12 20.17 5.45L14.83 2.48C13.68 1.84 11.82 1.84 10.68 2.48Z" stroke="#296BEF" stroke-width="2" stroke-linecap="round" stroke-linejoin="round"/>
<path d="M17.75 13.24V9.58001L8.26001 4.10001" stroke="#296BEF" stroke-width="2" stroke-linecap="round" stroke-linejoin="round"/>
</svg>
