<svg width="25" height="24" viewBox="0 0 25 24" fill="none" xmlns="http://www.w3.org/2000/svg">
<path d="M20.75 7H4.75C3.64543 7 2.75 7.89543 2.75 9V19C2.75 20.1046 3.64543 21 4.75 21H20.75C21.8546 21 22.75 20.1046 22.75 19V9C22.75 7.89543 21.8546 7 20.75 7Z" stroke="#296BEF" stroke-width="2" stroke-linecap="round" stroke-linejoin="round"/>
<path d="M16.75 21V5C16.75 4.46957 16.5393 3.96086 16.1642 3.58579C15.7891 3.21071 15.2804 3 14.75 3H10.75C10.2196 3 9.71086 3.21071 9.33579 3.58579C8.96071 3.96086 8.75 4.46957 8.75 5V21" stroke="#296BEF" stroke-width="2" stroke-linecap="round" stroke-linejoin="round"/>
</svg>
