<svg width="110" height="40" viewBox="0 0 110 40" fill="none" xmlns="http://www.w3.org/2000/svg">
<path d="M74.2588 28.9312C74.2528 28.9373 74.2463 28.9373 74.2463 28.944C69.6167 32.3034 64.136 35.8327 58.2381 39.5376L58.0055 39.6758C57.9693 39.7041 57.9452 39.7456 57.9382 39.7917C57.9312 39.8379 57.9419 39.885 57.968 39.9232C57.9942 39.9614 58.0337 39.9877 58.0784 39.9967C58.1231 40.0056 58.1694 39.9964 58.2077 39.9711L58.4033 39.8641C63.4068 37.1895 69.1515 34.0112 74.9326 30.7521C74.9631 30.7337 74.9935 30.7148 75.0245 30.702C74.6957 30.148 74.4387 29.5528 74.2588 28.9312ZM104.634 3.71806C97.3398 -4.53363 50.3992 2.88894 30.441 7.36053L29.9759 7.46082C29.9532 7.46472 29.9316 7.4732 29.9122 7.48578C29.8928 7.49835 29.876 7.51477 29.8628 7.53407C29.8497 7.55337 29.8404 7.57516 29.8356 7.59817C29.8307 7.62119 29.8304 7.64496 29.8346 7.66811C29.8531 7.7684 29.9449 7.83137 30.0367 7.81242L30.4959 7.71825C47.0312 4.69819 81.4234 0.515231 88.8211 8.03865C91.0811 10.3371 90.542 13.2881 87.9207 16.7801C89.3292 17.7095 90.3334 19.1722 90.7871 20.9999C101.014 14.042 107.879 7.39173 104.633 3.71806H104.634Z" fill="#CCCCD2"/>
<path d="M77.2104 26.7647C77.3028 29.6661 79.0965 32.0459 81.4299 32.0459C85.9557 32.0459 87.8848 26.344 87.7495 22.5383C87.6517 19.6308 85.815 17.2571 83.4817 17.2571C79.5927 17.251 77.0757 22.9278 77.2104 26.7647ZM74.8223 26.6076C74.6565 21.6529 78.4412 16.5851 83.9403 16.5851C87.6153 16.5851 90.0219 19.097 90.1567 22.9467C90.3344 28.1711 86.7947 32.9692 81.0441 32.9692C77.3577 32.9692 74.9505 30.4635 74.8223 26.6076ZM22.7395 25.3015C22.5439 25.3767 22.2923 25.4519 21.9739 25.521C21.6614 25.5968 21.086 25.6971 20.253 25.8353C19.677 25.9295 19.2792 26.0487 19.0526 26.2181C18.8385 26.3814 18.7103 26.5764 18.6728 26.821C18.6304 27.0784 18.7097 27.2796 18.9244 27.4428C19.1444 27.6 19.5118 27.6813 20.0329 27.6813C20.4241 27.6813 20.8045 27.6189 21.1718 27.493C21.5451 27.3676 21.8636 27.1977 22.1026 26.9843C22.2803 26.8277 22.4086 26.6265 22.5064 26.3814C22.5678 26.2181 22.6477 25.8604 22.7395 25.3015ZM27.5159 22.2558C27.498 22.7077 27.4181 23.11 27.3018 23.8071L26.4932 28.4598C26.4259 28.8749 26.5731 29.1953 26.9464 29.4209L26.922 29.6031L22.2923 29.597L22.2494 28.4157C21.5529 28.838 20.8058 29.1654 20.0269 29.3897C19.2917 29.5848 18.6978 29.6661 17.8099 29.6661C16.3156 29.6661 15.4581 29.509 14.8642 28.9752C14.2637 28.4291 13.9697 28.0647 14.0002 27.3108C14.0252 26.8778 14.2452 26.319 14.5577 25.9295C14.8761 25.5339 15.3174 25.2764 15.7885 25.0435C16.2667 24.8117 16.8296 24.6423 17.6441 24.5103C18.4647 24.3721 19.6041 24.24 21.1289 24.1085C21.9309 24.0394 22.4211 23.8511 22.6477 23.7569C22.9661 23.631 23.0943 23.4867 23.1373 23.2231C23.2231 22.7456 23.0764 22.4692 22.4515 22.3438C20.786 22.0045 17.6566 22.5634 16.046 22.9718L16.9214 20.548C19.0461 20.2276 21.0371 20.0264 23.1378 20.0264C26.4873 20.0264 27.5528 20.9999 27.5159 22.2558ZM40.9403 29.597L42.5444 20.2967H46.9785L45.3738 29.5965L40.9403 29.597ZM42.7895 18.1425C42.9242 17.3763 44.1001 16.7606 45.4102 16.7606C46.7269 16.7606 47.6887 17.3825 47.5599 18.1425C47.4186 18.9087 46.2492 19.5299 44.9266 19.5299C43.616 19.5299 42.6607 18.9087 42.7895 18.1425ZM62.721 25.3204C62.5188 25.3895 62.2618 25.4648 61.9494 25.54C61.6369 25.6152 61.0615 25.7099 60.2285 25.8476C59.659 25.9423 59.2547 26.0615 59.0346 26.2309C58.82 26.3881 58.6977 26.5886 58.6488 26.8271C58.5999 27.0851 58.6918 27.2924 58.8999 27.449C59.1265 27.6061 59.4938 27.6813 60.0138 27.6813C60.3996 27.6813 60.78 27.6251 61.1533 27.5058C61.5331 27.3738 61.8456 27.2105 62.0901 26.9971C62.2618 26.8399 62.3906 26.6327 62.4824 26.3942C62.5433 26.2371 62.6226 25.8793 62.721 25.3204ZM67.4974 22.2686C67.4794 22.7266 67.3996 23.1289 67.2773 23.8193L66.4753 28.4793C66.4079 28.8871 66.5546 29.2137 66.9284 29.4399L66.904 29.6031L62.2743 29.6093L62.2374 28.4224C61.5427 28.8486 60.7949 29.176 60.0144 29.3959C59.2792 29.5965 58.6852 29.6784 57.7854 29.6784C56.2911 29.6784 55.4396 29.5279 54.8456 28.9874C54.2392 28.4352 53.9518 28.077 53.9817 27.3236C54.0007 26.884 54.2207 26.3251 54.5392 25.9417C54.8581 25.5405 55.2988 25.2887 55.7765 25.0563C56.2541 24.824 56.8176 24.6551 57.6262 24.5164C58.4467 24.3849 59.5916 24.2467 61.1164 24.1146C61.913 24.0456 62.4026 23.8639 62.6292 23.7692C62.9536 23.6438 63.0764 23.4989 63.1253 23.2287C63.2051 22.7584 63.0639 22.482 62.4455 22.35C60.7675 22.0106 57.6506 22.5701 56.04 22.9779L56.9094 20.5541C59.0406 20.2337 61.0245 20.0325 63.1253 20.0325C66.4628 20.0392 67.5278 21.0188 67.4974 22.2686ZM13.4003 26.256C11.9549 26.5513 11.1468 26.6644 9.7199 26.6644C7.60068 26.6644 5.91672 25.584 6.00855 23.6059C6.07593 22.287 7.59471 19.5116 11.4587 19.5116C12.6776 19.5116 13.6269 19.7311 14.9065 20.4789L15.47 17.251C13.7312 16.579 12.5792 16.4787 11.0849 16.4909C6.01507 16.5478 1.15229 18.9092 0.545865 23.7123C-0.0665349 28.5918 5.74555 29.8166 8.32339 29.8043C9.81173 29.7976 11.3609 29.7352 12.8064 29.5842L13.4003 26.256ZM49.4215 20.2465L49.74 18.3498L54.3762 17.3134L53.88 20.2398H56.1514L55.7232 22.1115L53.5187 22.1054L52.1776 29.5842C52.1776 29.5842 47.7131 29.553 47.6946 29.5842L49.0298 22.1237H47.3518L47.6946 20.2404H49.4215V20.2465ZM74.1566 16.7484L72.001 29.5903L67.4876 29.5965L69.7595 16.6224L74.1566 16.7484ZM35.0733 22.4753C34.5047 22.4716 33.9509 22.6617 33.4991 23.0158C33.034 23.3797 32.74 23.9074 32.6237 24.6044C32.4825 25.4146 32.5683 25.9986 32.8808 26.3563C33.1992 26.7146 33.6524 26.8968 34.2523 26.8968C34.6566 26.8968 35.0728 26.821 35.3793 26.6644C35.7591 26.4571 36.0221 26.2432 36.2487 25.8983C36.4938 25.54 36.653 25.1382 36.7388 24.6735C36.8676 23.9386 36.7573 23.3919 36.4264 23.0281C36.102 22.6642 35.6548 22.4753 35.0733 22.4753ZM27.0018 32.806L29.1634 20.3468H33.0585L32.758 21.9354C33.0949 21.4584 33.6339 21.0689 34.3811 20.7547C35.1342 20.441 35.9792 20.2086 36.898 20.2086C37.9142 20.2086 38.5391 20.2649 39.2987 20.6672C40.0519 21.0751 40.5849 21.6657 40.8664 22.4319C41.1598 23.1852 41.2218 24.0394 41.062 24.9622C40.799 26.5012 40.0704 27.7064 38.87 28.5985C37.6822 29.49 36.6101 29.7224 35.0853 29.7285C34.5463 29.7285 34.0931 29.6722 33.7198 29.5781C33.3524 29.4778 33.0585 29.358 32.8378 29.2137C32.6237 29.0693 32.3972 28.8621 32.1092 28.5355L31.3865 32.806H27.0018ZM107.482 23.6187C107.457 22.871 107.089 22.3628 106.336 22.3628C104.517 22.3628 102.582 26.0175 102.251 27.4869C105.234 27.493 107.555 25.672 107.482 23.6187ZM107.873 29.3457L108.222 29.5909C107.334 31.443 105.528 32.9313 103.409 32.9313C101.675 32.9313 100.249 31.7445 100.176 29.5212C100.034 25.5339 103.678 21.8351 106.661 21.8351C107.941 21.8351 109.129 22.4062 109.177 23.8193C109.288 26.991 104.946 27.9577 102.086 28.0268C101.994 28.3595 101.957 28.6927 101.976 29.1947C102.025 30.5075 102.796 31.613 104.401 31.613C105.785 31.613 107.169 30.4696 107.873 29.3452L107.873 29.3457Z" fill="#CCCCD2"/>
<path d="M90.0893 23.5178C90.3952 23.4738 90.8913 23.4175 91.1054 23.4175C91.4303 23.4175 91.7363 23.4805 91.7548 23.8131C91.7613 24.0082 91.4178 25.4207 91.3445 25.7472L90.6528 28.8748C90.3707 30.1558 90.0708 31.4937 89.8013 32.5546H91.5771L92.5753 27.5999C95.6193 24.3469 96.7947 23.2855 97.5114 23.2855C97.8358 23.2855 98.0564 23.4615 98.0749 23.8572C98.0934 24.4283 97.744 25.7283 97.6277 26.1055L96.6116 29.7162C96.3784 30.5264 96.2073 31.2608 96.2258 31.7823C96.2562 32.5736 96.7213 32.9246 97.4196 32.9246C98.7183 32.9246 99.6611 31.5372 100.482 30.1742L100.242 29.7285C99.9121 30.2745 99.1405 31.4742 98.5341 31.4742C98.3439 31.4742 98.1608 31.3427 98.1542 31.0162C98.1363 30.5955 98.3075 29.9608 98.4303 29.5401L99.5633 25.3076C99.8692 24.1397 100.01 23.3925 100.004 22.9907C99.9735 22.1995 99.5258 21.8289 98.834 21.8289C97.6647 21.8289 96.1154 22.7076 92.8269 26.5825H92.778L93.1942 24.6924C93.4208 23.656 93.6409 22.5761 93.8495 21.8284C92.71 22.2496 91.0815 22.7205 90.0768 22.9216L90.0893 23.5178Z" fill="#CCCCD2"/>
</svg>
