<svg width="24" height="24" viewBox="0 0 24 24" fill="none" xmlns="http://www.w3.org/2000/svg">
<path d="M2 17.06H12" stroke="#1B1B1F" stroke-width="2" stroke-miterlimit="10" stroke-linecap="round" stroke-linejoin="round"/>
<path d="M22 15C22 18.87 18.87 22 15 22L16.05 20.25M2 9C2 5.13 5.13 2 9 2L7.95 3.75M4.22 13.5H9.78C11.56 13.5 12 13.94 12 15.7V19.81C12 21.57 11.56 22.01 9.78 22.01H4.22C2.44 22.01 2 21.57 2 19.81V15.7C2 13.94 2.44 13.5 4.22 13.5ZM18.5 11C19.0909 11 19.6761 10.8836 20.2221 10.6575C20.768 10.4313 21.2641 10.0998 21.682 9.68198C22.0998 9.26412 22.4313 8.76804 22.6575 8.22208C22.8836 7.67611 23 7.09095 23 6.5C23 5.90905 22.8836 5.32389 22.6575 4.77792C22.4313 4.23196 22.0998 3.73588 21.682 3.31802C21.2641 2.90016 20.768 2.56869 20.2221 2.34254C19.6761 2.1164 19.0909 2 18.5 2C17.3065 2 16.1619 2.47411 15.318 3.31802C14.4741 4.16193 14 5.30653 14 6.5C14 7.69347 14.4741 8.83807 15.318 9.68198C16.1619 10.5259 17.3065 11 18.5 11Z" stroke="#1B1B1F" stroke-width="2" stroke-linecap="round" stroke-linejoin="round"/>
</svg>
