<svg width="41" height="40" viewBox="0 0 41 40" fill="none" xmlns="http://www.w3.org/2000/svg">
<g clip-path="url(#clip0_359_1265)">
<path d="M0.375244 25.6906C0.375244 26.4706 1.00858 27.1073 1.78858 27.1073H11.6836V0.9573L0.375244 12.8656V25.6906ZM26.0686 39.9939C26.8469 39.9939 27.4786 39.3606 27.4786 38.579V28.684H1.33024L13.2402 39.9923L26.0686 39.9939ZM40.3752 14.3106C40.3757 14.1252 40.3395 13.9415 40.2687 13.7701C40.1978 13.5988 40.0939 13.4431 39.9627 13.312C39.8315 13.181 39.6757 13.0772 39.5042 13.0066C39.3327 12.936 39.149 12.9 38.9636 12.9006H29.0669V39.049L40.3702 27.1356L40.3752 14.3106ZM14.6836 0.00396729C14.3092 0.00396729 13.9501 0.152696 13.6854 0.417435C13.4206 0.682173 13.2719 1.04124 13.2719 1.41563V11.3156H39.4186L27.5119 0.00396729H14.6836Z" fill="#CCCCD2"/>
</g>
<defs>
<clipPath id="clip0_359_1265">
<rect width="40" height="40" fill="white" transform="translate(0.375244)"/>
</clipPath>
</defs>
</svg>
