<svg width="152" height="40" viewBox="0 0 152 40" fill="none" xmlns="http://www.w3.org/2000/svg">
<path fill-rule="evenodd" clip-rule="evenodd" d="M14.2157 28.1086L14.117 28.2065C12.8396 29.4839 11.3655 30.172 9.79348 30.172C6.55068 30.172 4.19183 27.8131 4.19183 24.4724C4.19183 21.0321 6.55068 18.6732 9.79348 18.6732C11.3655 18.6732 12.8396 19.3613 14.117 20.6386L14.2157 20.7374L16.2791 18.2806V18.1818C14.5104 16.1185 12.4462 15.1349 9.89062 15.1349C7.33507 15.1349 4.97704 16.0197 3.30626 17.5917C1.43877 19.2625 0.55481 21.6214 0.55481 24.4724C0.55481 27.223 1.43958 29.5818 3.30626 31.2534C4.97704 32.8247 7.33588 33.7102 9.89062 33.7102C12.4454 33.7102 14.5104 32.7267 16.2791 30.6633V30.5654L14.2157 28.1086ZM18.54 33.316H22.1762V15.4296H18.54V33.316ZM35.9351 29.4839C35.0503 30.074 34.0676 30.3679 33.2816 30.3679C32.1021 30.3679 31.512 29.7777 31.512 28.3045V18.8691H35.2462V15.4296H31.512V9.82794L27.9737 11.7934V15.4296H24.8289V18.8691H27.9737V28.9917C27.9737 31.7424 29.5466 33.6099 32.0034 33.6099C33.6742 33.7094 34.6569 33.2181 35.2462 32.8238H35.3449V32.7259L36.2289 29.2856L35.9351 29.4839ZM38.5886 33.316H42.3227V15.4296H38.5886V33.316Z" fill="#CCCCD2"/>
<path fill-rule="evenodd" clip-rule="evenodd" d="M134.114 0H133.228L133.032 1.47407C118.389 1.86668 115.44 13.2667 115.44 13.2667C115.44 13.2667 118.095 11.5967 122.026 11.5967C126.056 11.5967 127.627 13.1687 127.627 13.1687C127.627 13.1687 130.182 11.1045 133.72 11.1045C137.259 11.1045 139.813 13.1687 139.813 13.1687C139.813 13.1687 141.385 11.5967 145.317 11.5967C149.346 11.5967 152 13.2667 152 13.2667C152 13.2667 148.953 1.86668 134.31 1.47407L134.114 0Z" fill="#CCCCD2"/>
<path fill-rule="evenodd" clip-rule="evenodd" d="M131.459 33.8083C133.72 33.8083 134.9 32.4329 134.9 29.8766V12.679C134.408 12.4823 133.622 12.4823 133.13 12.679V29.8766C133.13 31.5474 132.442 32.1375 131.459 32.1375C130.38 32.1375 129.69 31.5474 129.69 29.8766C129.69 29.3868 129.298 28.9926 128.904 28.9926C128.412 28.9926 128.02 29.386 128.02 29.8766C128.021 32.4321 129.2 33.8083 131.459 33.8083Z" fill="#CCCCD2"/>
<path fill-rule="evenodd" clip-rule="evenodd" d="M56.9663 28.2066C55.9836 29.386 54.4108 30.5654 52.74 30.5654C49.9885 30.5654 48.5137 28.5984 48.5137 23.9803C48.5137 20.2453 49.8898 18.2799 52.5433 18.2799C54.4108 18.2799 56.0815 19.5572 56.9663 20.6387V28.2066ZM60.5038 31.7433V15.4297H56.8676V17.1004C55.8848 16.019 54.1161 15.0363 52.2478 15.0363C48.4157 15.0363 44.8774 17.9852 44.8774 24.0774C44.8774 30.9564 48.0223 33.8074 52.0519 33.8074C54.0174 33.8074 55.4914 32.9219 56.8676 31.7424V32.0379C56.8676 35.6741 55.6881 37.0494 50.4791 37.3457L51.7573 39.9004C58.4404 39.7037 60.5038 37.149 60.5038 31.7433ZM73.6733 19.1646C72.8873 18.7712 72.0025 18.4766 70.8231 18.4766C68.4643 18.4766 67.1869 20.0494 67.1869 23.0955V33.3169H63.5507V15.4297H67.1869V17.1004C67.9729 15.921 69.5457 15.0363 71.4124 15.0363C72.8865 15.0363 73.87 15.3309 74.6552 15.8223L73.6733 19.1646ZM87.1367 24.4716C87.1367 27.7144 85.2692 30.4651 82.5186 30.4651C79.7663 30.4651 77.8009 28.3037 77.8009 24.3737C77.8009 20.7367 79.5704 18.3778 82.3211 18.3778C85.2692 18.3786 87.1367 20.7367 87.1367 24.4716ZM90.7729 24.3737C90.7729 18.6733 87.2346 15.0363 82.5186 15.0363C77.8009 15.0363 74.1647 18.4758 74.1647 24.4716C74.1647 30.0733 77.7029 33.8074 82.4206 33.8074C87.2346 33.8083 90.7729 30.2692 90.7729 24.3737ZM103.844 33.3161V31.7433C102.862 33.0206 100.994 33.8083 99.1276 33.8083C94.7054 33.8083 92.4445 31.056 92.4445 25.7498V15.4297H96.0807V25.6494C96.0807 29.2857 97.554 30.5646 99.9128 30.5646C102.37 30.5646 103.843 28.8939 103.843 25.9449V15.4297H107.479V33.3161H103.844ZM122.517 24.7663C122.517 28.5984 121.042 30.5654 118.389 30.5654C116.521 30.5654 114.85 29.2865 113.966 28.2066V20.5408C114.948 19.4601 116.521 18.2807 118.291 18.2807C120.944 18.2799 122.517 20.2453 122.517 24.7663ZM126.153 24.6683C126.153 17.8873 123.008 15.0371 118.979 15.0371C116.915 15.0371 115.342 15.9218 113.967 17.1013V15.4305H110.429V40L113.967 38.1325V31.7433C115.049 32.8247 116.817 33.8083 118.783 33.8083C122.615 33.8083 126.153 30.8593 126.153 24.6683Z" fill="#CCCCD2"/>
</svg>
