<svg width="24" height="24" viewBox="0 0 24 24" fill="none" xmlns="http://www.w3.org/2000/svg">
<path d="M12 5.33333V18.6667M8.66667 15.5356L9.64333 16.2678C10.9444 17.2444 13.0544 17.2444 14.3567 16.2678C15.6589 15.2911 15.6589 13.7089 14.3567 12.7322C13.7067 12.2433 12.8533 12 12 12C11.1944 12 10.3889 11.7556 9.77444 11.2678C8.54556 10.2911 8.54556 8.70889 9.77444 7.73222C11.0033 6.75556 12.9967 6.75556 14.2256 7.73222L14.6867 8.09889M22 12C22 13.3132 21.7413 14.6136 21.2388 15.8268C20.7363 17.0401 19.9997 18.1425 19.0711 19.0711C18.1425 19.9997 17.0401 20.7363 15.8268 21.2388C14.6136 21.7413 13.3132 22 12 22C10.6868 22 9.38642 21.7413 8.17317 21.2388C6.95991 20.7363 5.85752 19.9997 4.92893 19.0711C4.00035 18.1425 3.26375 17.0401 2.7612 15.8268C2.25866 14.6136 2 13.3132 2 12C2 9.34784 3.05357 6.8043 4.92893 4.92893C6.8043 3.05357 9.34784 2 12 2C14.6522 2 17.1957 3.05357 19.0711 4.92893C20.9464 6.8043 22 9.34784 22 12Z" stroke="black" stroke-width="2" stroke-linecap="round" stroke-linejoin="round"/>
</svg>
