<svg width="28" height="18" viewBox="0 0 28 18" fill="none" xmlns="http://www.w3.org/2000/svg">
<path d="M6.601 6.35231L7.23725 5.71577C6.88581 5.36449 6.31618 5.36449 5.96475 5.71577L6.601 6.35231ZM6.601 6.35231C7.23725 6.98884 7.23732 6.98877 7.23738 6.98872L7.23724 6.98886L7.23584 6.99025L7.229 6.99714L7.22024 7.00603L5.97299 6.99714L5.96615 6.99025L5.96476 6.98886L5.96462 6.98872C5.96468 6.98877 5.96475 6.98884 6.601 6.35231ZM6.601 6.35231C5.96475 5.71577 5.96465 5.71587 5.96453 5.71598L5.96423 5.71629L5.96335 5.71716L5.96056 5.71996L5.95088 5.72971L5.91569 5.76538C5.88543 5.79617 5.84188 5.8408 5.78694 5.89788C5.67709 6.01201 5.5214 6.17622 5.3351 6.37955C4.9634 6.78521 4.46551 7.35129 3.96536 7.98902C3.46785 8.62338 2.95331 9.34732 2.55903 10.0673C2.17894 10.7614 1.8461 11.5653 1.8461 12.3298C1.8461 14.953 3.97682 17.0761 6.601 17.0761C9.22517 17.0761 11.3559 14.953 11.3559 12.3298C11.3559 11.5653 11.0231 10.7614 10.643 10.0673C10.2487 9.34732 9.73414 8.62338 9.23663 7.98902C8.73648 7.35129 8.23859 6.78521 7.8669 6.37955C7.6806 6.17622 7.52491 6.01201 7.41506 5.89788C7.36011 5.8408 7.31656 5.79617 7.28631 5.76538L7.25112 5.72971L7.24143 5.71996L7.23864 5.71716L7.23777 5.71629L7.23746 5.71598C7.23735 5.71587 7.23725 5.71577 6.601 6.35231Z" stroke="#0040A2" stroke-width="1.8" stroke-linejoin="round"/>
<line x1="2.9" y1="12.1674" x2="10.302" y2="12.1674" stroke="#0040A2" stroke-width="1.8" stroke-linecap="round"/>
<path d="M21.3986 6.35231L22.0349 5.71577C21.6834 5.36449 21.1138 5.36449 20.7624 5.71577L21.3986 6.35231ZM21.3986 6.35231C22.0349 6.98884 22.0349 6.98877 22.035 6.98872L22.0348 6.98886L22.0334 6.99025L22.0266 6.99714L22.0178 7.00603L20.7706 6.99714L20.7638 6.99025L20.7624 6.98886L20.7622 6.98872C20.7623 6.98877 20.7624 6.98884 21.3986 6.35231ZM21.3986 6.35231C20.7624 5.71577 20.7623 5.71587 20.7621 5.71598L20.7618 5.71629L20.761 5.71716L20.7582 5.71996L20.7485 5.72971L20.7133 5.76538C20.683 5.79617 20.6395 5.8408 20.5845 5.89788C20.4747 6.01201 20.319 6.17622 20.1327 6.37955C19.761 6.78521 19.2631 7.35129 18.763 7.98902C18.2655 8.62338 17.7509 9.34732 17.3566 10.0673C16.9766 10.7614 16.6437 11.5653 16.6437 12.3298C16.6437 14.953 18.7744 17.0761 21.3986 17.0761C24.0228 17.0761 26.1535 14.953 26.1535 12.3298C26.1535 11.5653 25.8207 10.7614 25.4406 10.0673C25.0463 9.34732 24.5317 8.62338 24.0342 7.98902C23.5341 7.35129 23.0362 6.78521 22.6645 6.37955C22.4782 6.17622 22.3225 6.01201 22.2127 5.89788C22.1577 5.8408 22.1142 5.79617 22.0839 5.76538L22.0487 5.72971L22.039 5.71996L22.0362 5.71716L22.0354 5.71629L22.0351 5.71598C22.035 5.71587 22.0349 5.71577 21.3986 6.35231Z" stroke="#0040A2" stroke-width="1.8" stroke-linejoin="round"/>
<line x1="17.6981" y1="12.1674" x2="25.1001" y2="12.1674" stroke="#0040A2" stroke-width="1.8" stroke-linecap="round"/>
<line x1="7.12803" y1="2.34364" x2="11.7943" y2="2.34364" stroke="#0040A2" stroke-width="1.8" stroke-linecap="round"/>
<line x1="16.2057" y1="2.34364" x2="20.872" y2="2.34364" stroke="#0040A2" stroke-width="1.8" stroke-linecap="round"/>
<path d="M14 5.51145C15.2182 5.51145 16.2057 4.52393 16.2057 3.30576C16.2057 2.08759 15.2182 1.10007 14 1.10007C12.7819 1.10007 11.7943 2.08759 11.7943 3.30576C11.7943 4.52393 12.7819 5.51145 14 5.51145Z" stroke="#0040A2" stroke-width="1.8"/>
</svg>
