<svg width="22" height="16" viewBox="0 0 22 16" fill="none" xmlns="http://www.w3.org/2000/svg">
<path d="M4.83425 5.75195L5.36446 5.2215C5.0716 4.92877 4.59691 4.92877 4.30404 5.2215L4.83425 5.75195ZM4.83425 5.75195C5.36446 6.2824 5.36452 6.28234 5.36457 6.2823L5.36445 6.28241L5.36329 6.28358L5.35759 6.28932L5.35029 6.29672L4.31092 6.28932L4.30522 6.28358L4.30406 6.28241L4.30394 6.2823C4.30399 6.28234 4.30404 6.2824 4.83425 5.75195ZM4.83425 5.75195C4.30404 5.2215 4.30396 5.22159 4.30387 5.22168L4.30361 5.22194L4.30289 5.22266L4.30056 5.225L4.29249 5.23312L4.26316 5.26284C4.23795 5.28851 4.20166 5.32569 4.15587 5.37327C4.06433 5.46837 3.93459 5.60522 3.77934 5.77466C3.46959 6.11271 3.05468 6.58444 2.63789 7.11588C2.22329 7.64452 1.79451 8.2478 1.46594 8.8478C1.1492 9.42622 0.871826 10.0961 0.871826 10.7332C0.871826 12.9192 2.64744 14.6885 4.83425 14.6885C7.02107 14.6885 8.79668 12.9192 8.79668 10.7332C8.79668 10.0961 8.51931 9.42622 8.20257 8.8478C7.874 8.2478 7.44521 7.64452 7.03062 7.11588C6.61383 6.58444 6.19892 6.11271 5.88917 5.77466C5.73392 5.60522 5.60418 5.46837 5.51264 5.37327C5.46685 5.32569 5.43056 5.28851 5.40535 5.26284L5.37602 5.23312L5.36795 5.225L5.36562 5.22266L5.3649 5.22194L5.36464 5.22168C5.36455 5.22159 5.36446 5.2215 4.83425 5.75195Z" stroke="#0040A2" stroke-width="1.5" stroke-linejoin="round"/>
<line x1="1.75" y1="10.5978" x2="7.91838" y2="10.5978" stroke="#0040A2" stroke-width="1.5" stroke-linecap="round"/>
<path d="M17.1657 5.75195L17.6959 5.2215C17.403 4.92877 16.9283 4.92877 16.6355 5.2215L17.1657 5.75195ZM17.1657 5.75195C17.6959 6.2824 17.6959 6.28234 17.696 6.2823L17.6959 6.28241L17.6947 6.28358L17.689 6.28932L17.6817 6.29672L16.6423 6.28932L16.6366 6.28358L16.6355 6.28241L16.6354 6.2823C16.6354 6.28234 16.6355 6.2824 17.1657 5.75195ZM17.1657 5.75195C16.6355 5.2215 16.6354 5.22159 16.6353 5.22168L16.635 5.22194L16.6343 5.22266L16.632 5.225L16.6239 5.23312L16.5946 5.26284C16.5694 5.28851 16.5331 5.32569 16.4873 5.37327C16.3957 5.46837 16.266 5.60522 16.1108 5.77466C15.801 6.11271 15.3861 6.58444 14.9693 7.11588C14.5547 7.64452 14.1259 8.2478 13.7974 8.8478C13.4806 9.42622 13.2032 10.0961 13.2032 10.7332C13.2032 12.9192 14.9789 14.6885 17.1657 14.6885C19.3525 14.6885 21.1281 12.9192 21.1281 10.7332C21.1281 10.0961 20.8507 9.42622 20.534 8.8478C20.2054 8.2478 19.7766 7.64452 19.362 7.11588C18.9453 6.58444 18.5303 6.11271 18.2206 5.77466C18.0653 5.60522 17.9356 5.46837 17.8441 5.37327C17.7983 5.32569 17.762 5.28851 17.7368 5.26284L17.7074 5.23312L17.6994 5.225L17.697 5.22266L17.6963 5.22194L17.6961 5.22168C17.696 5.22159 17.6959 5.2215 17.1657 5.75195Z" stroke="#0040A2" stroke-width="1.5" stroke-linejoin="round"/>
<line x1="14.0818" y1="10.5978" x2="20.2502" y2="10.5978" stroke="#0040A2" stroke-width="1.5" stroke-linecap="round"/>
<line x1="5.27332" y1="2.41132" x2="9.16191" y2="2.41132" stroke="#0040A2" stroke-width="1.5" stroke-linecap="round"/>
<line x1="12.838" y1="2.41132" x2="16.7266" y2="2.41132" stroke="#0040A2" stroke-width="1.5" stroke-linecap="round"/>
<circle cx="11.0001" cy="3.21308" r="1.83808" stroke="#0040A2" stroke-width="1.5"/>
</svg>
