<svg width="45" height="44" viewBox="0 0 45 44" fill="none" xmlns="http://www.w3.org/2000/svg">
<path d="M41 20.35V12.65C41 6.23332 38.4334 3.66666 32.0167 3.66666H24.3167C17.9 3.66666 15.3334 6.23332 15.3334 12.65V14.6667H21.0167C27.4334 14.6667 30 17.2333 30 23.65V29.3333H32.0167C38.4334 29.3333 41 26.7667 41 20.35Z" stroke="#1B1B1F" stroke-width="3.66667" stroke-linecap="round" stroke-linejoin="round"/>
<path d="M30 31.35V23.65C30 17.2333 27.4334 14.6667 21.0167 14.6667H13.3167C6.90004 14.6667 4.33337 17.2333 4.33337 23.65V31.35C4.33337 37.7667 6.90004 40.3333 13.3167 40.3333H21.0167C27.4334 40.3333 30 37.7667 30 31.35Z" stroke="#1B1B1F" stroke-width="3.66667" stroke-linecap="round" stroke-linejoin="round"/>
<path d="M11.8136 27.5L15.3886 31.075L22.5203 23.925" stroke="#1B1B1F" stroke-width="3.66667" stroke-linecap="round" stroke-linejoin="round"/>
</svg>
