<svg width="24" height="24" viewBox="0 0 24 24" fill="none" xmlns="http://www.w3.org/2000/svg">
<path d="M4.5 3L4.19132 7.72275C4.07851 9.4488 5.14056 11.0349 6.77947 11.5881V11.5881C7.57122 11.8553 8.42878 11.8553 9.22053 11.5881V11.5881C10.8594 11.0349 11.9215 9.4488 11.8087 7.72275L11.5 3" stroke="#1B1B1F" stroke-width="2" stroke-linecap="round"/>
<path d="M8 3V9" stroke="#1B1B1F" stroke-width="2" stroke-linecap="round"/>
<path d="M8 12V21" stroke="#1B1B1F" stroke-width="2" stroke-linecap="round"/>
<path d="M20 21L20 14.7426M20 14.7426L20 3.12171C20 2.67475 17.7308 3.37027 16.2257 6.69737C15.1536 9.06724 14.8936 11.4371 15.0356 13.2243C15.1075 14.1295 15.9148 14.7426 16.8229 14.7426H20Z" stroke="#1B1B1F" stroke-width="2" stroke-linecap="round"/>
</svg>
