<svg width="44" height="44" viewBox="0 0 44 44" fill="none" xmlns="http://www.w3.org/2000/svg">
<path d="M38.5 20.625V35.75C38.5 36.4793 38.2103 37.1788 37.6945 37.6945C37.1788 38.2103 36.4793 38.5 35.75 38.5H9.625C8.89565 38.5 8.19618 38.2103 7.68046 37.6945C7.16473 37.1788 6.875 36.4793 6.875 35.75V20.625M22 8.9375C22 7.98568 21.7178 7.05523 21.1889 6.26382C20.6601 5.47241 19.9085 4.85558 19.0292 4.49133C18.1498 4.12709 17.1822 4.03178 16.2486 4.21747C15.3151 4.40316 14.4576 4.86151 13.7845 5.53455C13.1115 6.20759 12.6532 7.0651 12.4675 7.99863C12.2818 8.93216 12.3771 9.8998 12.7413 10.7792C13.1056 11.6585 13.7224 12.4101 14.5138 12.9389C15.3052 13.4678 16.2357 13.75 17.1875 13.75H22M22 8.9375V13.75M22 8.9375C22 7.98568 22.2822 7.05523 22.8111 6.26382C23.3399 5.47241 24.0915 4.85558 24.9708 4.49133C25.8502 4.12709 26.8178 4.03178 27.7514 4.21747C28.6849 4.40316 29.5424 4.86151 30.2155 5.53455C30.8885 6.20759 31.3468 7.0651 31.5325 7.99863C31.7182 8.93216 31.6229 9.8998 31.2587 10.7792C30.8944 11.6585 30.2776 12.4101 29.4862 12.9389C28.6948 13.4678 27.7643 13.75 26.8125 13.75H22M22 13.75V38.5M6.1875 20.625H39.1875C40.326 20.625 41.25 19.701 41.25 18.5625V15.8125C41.25 14.674 40.326 13.75 39.1875 13.75H6.1875C5.049 13.75 4.125 14.674 4.125 15.8125V18.5625C4.125 19.701 5.049 20.625 6.1875 20.625Z" stroke="#1B1B1F" stroke-width="3.66667" stroke-linecap="round" stroke-linejoin="round"/>
</svg>
