<svg width="44" height="44" viewBox="0 0 44 44" fill="none" xmlns="http://www.w3.org/2000/svg">
<path d="M30.25 19.25V12.375C30.25 10.187 29.3808 8.08854 27.8336 6.54137C26.2865 4.99419 24.188 4.125 22 4.125C19.812 4.125 17.7135 4.99419 16.1664 6.54137C14.6192 8.08854 13.75 10.187 13.75 12.375V19.25M12.375 39.875H31.625C32.719 39.875 33.7682 39.4404 34.5418 38.6668C35.3154 37.8932 35.75 36.844 35.75 35.75V23.375C35.75 22.281 35.3154 21.2318 34.5418 20.4582C33.7682 19.6846 32.719 19.25 31.625 19.25H12.375C11.281 19.25 10.2318 19.6846 9.45818 20.4582C8.6846 21.2318 8.25 22.281 8.25 23.375V35.75C8.25 36.844 8.6846 37.8932 9.45818 38.6668C10.2318 39.4404 11.281 39.875 12.375 39.875Z" stroke="white" stroke-width="3.66667" stroke-linecap="round" stroke-linejoin="round"/>
<path d="M22 27.5V29.3333" stroke="white" stroke-width="3.66667" stroke-linecap="round"/>
</svg>
