<svg width="41" height="40" viewBox="0 0 41 40" fill="none" xmlns="http://www.w3.org/2000/svg">
<g clip-path="url(#clip0_359_1269)">
<path d="M19.0307 30.0517C19.1274 30.1333 19.2307 30.215 19.3324 30.295C17.3707 31.6 15.0157 32.3583 12.4874 32.3583C5.65907 32.36 0.125732 26.8267 0.125732 20C0.125732 13.175 5.65907 7.64001 12.4857 7.64001C15.0157 7.64001 17.3707 8.40001 19.3274 9.70335C19.2274 9.78835 19.1274 9.86668 19.0524 9.95335C16.1257 12.4817 14.4507 16.1467 14.4507 20C14.4507 23.8517 16.1191 27.5167 19.0307 30.0517ZM27.7657 7.64001C25.2324 7.64001 22.8807 8.40001 20.9241 9.70335C21.0241 9.78835 21.1241 9.86668 21.1991 9.95335C24.1257 12.4817 25.8007 16.1467 25.8007 20C25.8007 23.85 24.1324 27.5117 21.2207 30.0517C21.1241 30.1333 21.0207 30.215 20.9191 30.295C22.8807 31.6 25.2324 32.3583 27.7641 32.3583C34.5924 32.36 40.1257 26.8267 40.1257 20C40.1257 13.1767 34.5924 7.64001 27.7657 7.64001ZM20.1257 10.29C19.9657 10.415 19.8107 10.54 19.6591 10.675C17.0524 12.94 15.4074 16.275 15.4074 20C15.4074 23.7267 17.0524 27.06 19.6591 29.325C19.8091 29.4583 19.9674 29.5883 20.1257 29.7117C20.2857 29.5883 20.4407 29.4583 20.5924 29.325C23.1974 27.06 24.8441 23.7267 24.8441 20C24.8441 16.275 23.1991 12.94 20.5924 10.675C20.4424 10.5417 20.2857 10.415 20.1257 10.29Z" fill="#CCCCD2"/>
</g>
<defs>
<clipPath id="clip0_359_1269">
<rect width="40" height="40" fill="white" transform="translate(0.125732)"/>
</clipPath>
</defs>
</svg>
