<svg width="41" height="40" viewBox="0 0 41 40" fill="none" xmlns="http://www.w3.org/2000/svg">
<g clip-path="url(#clip0_137_113)">
<path d="M17.054 6.088C18.2487 10.0987 18.846 14.3653 18.846 18.888C18.846 24.008 17.6087 27.9333 15.134 30.664C12.7447 33.3947 9.20333 34.76 4.51 34.76V28.616C6.64333 28.616 8.222 28.0187 9.246 26.824C10.27 25.544 10.782 23.6667 10.782 21.192V18.504H3.87V6.088H17.054ZM36.382 6.088C37.662 10.7813 38.302 15.048 38.302 18.888C38.302 24.008 37.0647 27.9333 34.59 30.664C32.1153 33.3947 28.5313 34.76 23.838 34.76V28.616C26.0567 28.616 27.6353 28.0187 28.574 26.824C29.598 25.6293 30.11 23.752 30.11 21.192V18.504H23.198V6.088H36.382Z" fill="#296BEF"/>
</g>
<defs>
<clipPath id="clip0_137_113">
<rect width="40" height="40" fill="white" transform="translate(0.5)"/>
</clipPath>
</defs>
</svg>
