<svg width="24" height="24" viewBox="0 0 24 24" fill="none" xmlns="http://www.w3.org/2000/svg">
<path fill-rule="evenodd" clip-rule="evenodd" d="M4.93384 6.05132C6.90948 5.39277 9.26611 5 12.0001 5C14.734 5 17.0907 5.39277 19.0663 6.05132C20.0921 6.39324 20.8438 6.7428 21.3214 7.02267L21.5548 7.16795C21.9143 7.40767 22.0793 7.85125 21.9636 8.26764L19.4636 17.2676C19.3234 17.7723 18.8176 18.0833 18.304 17.9806L17.6698 17.8759L17.1835 17.8089L16.6396 17.7439C15.6835 17.6376 14.6367 17.561 13.5099 17.5243L13.2495 18.6697C13.4078 18.9075 13.5001 19.193 13.5001 19.5C13.5001 20.3284 12.8285 21 12.0001 21C11.1716 21 10.5001 20.3284 10.5001 19.5C10.5001 18.9192 10.8302 18.4155 11.313 18.1663L11.4637 17.503C9.96187 17.52 8.58661 17.6076 7.3605 17.7439L6.81666 17.8089L6.33031 17.8759L6.10916 17.9096L5.69619 17.9806C5.18258 18.0833 4.67674 17.7723 4.53655 17.2676L2.03655 8.26764C1.92089 7.85125 2.08579 7.40767 2.44537 7.16795L2.67871 7.02267C3.15634 6.7428 3.90806 6.39324 4.93384 6.05132ZM13.961 15.5395L15.2778 9.74649C15.4002 9.20794 15.0629 8.67213 14.5243 8.54972C13.9858 8.42731 13.45 8.76465 13.3275 9.3032L11.919 15.5001C10.1627 15.5029 8.55967 15.5983 7.13964 15.7561L6.55898 15.8256L6.22407 15.87L4.17707 8.501L4.00978 8.58193C4.43682 8.36841 4.95562 8.15224 5.5663 7.94868C7.34066 7.35723 9.48403 7 12.0001 7C14.5161 7 16.6595 7.35723 18.4338 7.94868L18.7315 8.05144C19.1182 8.18967 19.4641 8.33237 19.7692 8.47502L19.8221 8.501L17.7751 15.87L17.4412 15.8256L16.8605 15.7561C15.9644 15.6565 14.9954 15.5818 13.961 15.5395Z" fill="#55488A"/>
</svg>
