<svg width="28" height="28" viewBox="0 0 28 28" fill="none" xmlns="http://www.w3.org/2000/svg">
<mask id="mask0_305_1168" style="mask-type:alpha" maskUnits="userSpaceOnUse" x="2" y="1" width="24" height="24">
<path d="M13.0841 2.09048C13.4338 1.29223 14.5662 1.29223 14.9159 2.09048L17.5916 8.19722C17.7367 8.52833 18.0492 8.75537 18.4089 8.79103L25.0436 9.44864C25.9108 9.5346 26.2608 10.6116 25.6097 11.1909L20.6286 15.6227C20.3586 15.863 20.2392 16.2303 20.3165 16.5835L21.7413 23.0966C21.9275 23.948 21.0114 24.6136 20.2592 24.1734L14.5051 20.8056C14.1931 20.623 13.8069 20.623 13.4949 20.8056L7.74077 24.1734C6.98862 24.6136 6.0725 23.948 6.25875 23.0966L7.68355 16.5835C7.7608 16.2303 7.64144 15.863 7.37136 15.6227L2.39033 11.1909C1.73923 10.6116 2.08916 9.5346 2.95641 9.44864L9.59109 8.79103C9.95083 8.75537 10.2633 8.52834 10.4084 8.19722L13.0841 2.09048Z" fill="#E7D2BF"/>
</mask>
<g mask="url(#mask0_305_1168)">
<path d="M13.0841 2.09048C13.4338 1.29223 14.5662 1.29223 14.9159 2.09048L17.5916 8.19722C17.7367 8.52833 18.0492 8.75537 18.4089 8.79103L25.0436 9.44864C25.9108 9.5346 26.2608 10.6116 25.6097 11.1909L20.6286 15.6227C20.3586 15.863 20.2392 16.2303 20.3165 16.5835L21.7413 23.0966C21.9275 23.948 21.0114 24.6136 20.2592 24.1734L14.5051 20.8056C14.1931 20.623 13.8069 20.623 13.4949 20.8056L7.74077 24.1734C6.98862 24.6136 6.0725 23.948 6.25875 23.0966L7.68355 16.5835C7.7608 16.2303 7.64144 15.863 7.37136 15.6227L2.39033 11.1909C1.73923 10.6116 2.08916 9.5346 2.95641 9.44864L9.59109 8.79103C9.95083 8.75537 10.2633 8.52834 10.4084 8.19722L13.0841 2.09048Z" fill="#E7D2BF"/>
<rect x="1" y="1" width="13" height="24" fill="#FF9530"/>
</g>
</svg>
