<svg width="24" height="24" viewBox="0 0 24 24" fill="none" xmlns="http://www.w3.org/2000/svg">
<path d="M11.0841 1.09048C11.4338 0.292234 12.5662 0.292232 12.9159 1.09048L15.5916 7.19722C15.7367 7.52833 16.0492 7.75537 16.4089 7.79103L23.0436 8.44864C23.9108 8.5346 24.2608 9.61156 23.6097 10.1909L18.6286 14.6227C18.3586 14.863 18.2392 15.2303 18.3165 15.5835L19.7413 22.0966C19.9275 22.948 19.0114 23.6136 18.2592 23.1734L12.5051 19.8056C12.1931 19.623 11.8069 19.623 11.4949 19.8056L5.74077 23.1734C4.98862 23.6136 4.0725 22.948 4.25875 22.0966L5.68355 15.5835C5.7608 15.2303 5.64144 14.863 5.37136 14.6227L0.39033 10.1909C-0.260766 9.61156 0.0891573 8.53461 0.95641 8.44864L7.59109 7.79103C7.95083 7.75537 8.26332 7.52834 8.4084 7.19722L11.0841 1.09048Z" fill="#FF9530"/>
</svg>
