<svg width="20" height="20" viewBox="0 0 20 20" fill="none" xmlns="http://www.w3.org/2000/svg">
<g clip-path="url(#clip0_502_1807)">
<path d="M13.75 8.74988V5.62488C13.75 4.63032 13.3549 3.67649 12.6516 2.97323C11.9484 2.26997 10.9946 1.87488 10 1.87488C9.00544 1.87488 8.05161 2.26997 7.34835 2.97323C6.64509 3.67649 6.25 4.63032 6.25 5.62488V8.74988M5.625 18.1249H14.375C14.8723 18.1249 15.3492 17.9273 15.7008 17.5757C16.0525 17.2241 16.25 16.7472 16.25 16.2499V10.6249C16.25 10.1276 16.0525 9.65068 15.7008 9.29905C15.3492 8.94742 14.8723 8.74988 14.375 8.74988H5.625C5.12772 8.74988 4.65081 8.94742 4.29917 9.29905C3.94754 9.65068 3.75 10.1276 3.75 10.6249V16.2499C3.75 16.7472 3.94754 17.2241 4.29917 17.5757C4.65081 17.9273 5.12772 18.1249 5.625 18.1249Z" stroke="white" stroke-width="2" stroke-linecap="round" stroke-linejoin="round"/>
<path d="M10 12.4999V13.3332" stroke="white" stroke-width="2" stroke-linecap="round"/>
</g>
<defs>
<clipPath id="clip0_502_1807">
<rect width="20" height="20" fill="white"/>
</clipPath>
</defs>
</svg>
