<svg width="45" height="44" viewBox="0 0 45 44" fill="none" xmlns="http://www.w3.org/2000/svg">
<path d="M15 9.16666H4M9.5 34.8333H4M5.83333 22H4M28.5483 9.55166L31.1333 14.7217C31.4817 15.4367 32.4167 16.115 33.205 16.2617L37.88 17.0317C40.8683 17.5267 41.565 19.69 39.42 21.8533L35.7717 25.5017C35.1667 26.1067 34.8183 27.2983 35.02 28.16L36.065 32.67C36.89 36.2267 34.9833 37.62 31.8483 35.75L27.4667 33.1467C26.6783 32.67 25.3583 32.67 24.57 33.1467L20.1883 35.75C17.0533 37.6017 15.1467 36.2267 15.9717 32.67L17.0167 28.16C17.2183 27.3167 16.87 26.125 16.265 25.5017L12.6167 21.8533C10.4717 19.7083 11.1683 17.545 14.1567 17.0317L18.8317 16.2617C19.62 16.1333 20.555 15.4367 20.9033 14.7217L23.4883 9.55166C24.8633 6.74666 27.1367 6.74666 28.5483 9.55166Z" stroke="#1B1B1F" stroke-width="3.66667" stroke-linecap="round" stroke-linejoin="round"/>
</svg>
