<svg width="24" height="24" viewBox="0 0 24 24" fill="none" xmlns="http://www.w3.org/2000/svg">
<path d="M4.26001 10.147C3.98496 12.2526 3.82106 14.3712 3.76901 16.494C6.6478 17.6965 9.40417 19.1734 12 20.904C14.5962 19.1733 17.3529 17.6965 20.232 16.494C20.1799 14.3712 20.016 12.2526 19.741 10.147M19.741 10.147C20.616 9.853 21.503 9.581 22.399 9.333C19.1356 7.04524 15.652 5.08888 12 3.493C8.348 5.08922 4.86441 7.04591 1.60101 9.334C2.49429 9.58059 3.38063 9.8517 4.25901 10.147C6.92767 11.0441 9.51695 12.162 12 13.489C14.4828 12.1621 17.0727 11.0442 19.741 10.147ZM6.75001 15C6.94893 15 7.13969 14.921 7.28034 14.7803C7.421 14.6397 7.50001 14.4489 7.50001 14.25C7.50001 14.0511 7.421 13.8603 7.28034 13.7197C7.13969 13.579 6.94893 13.5 6.75001 13.5C6.5511 13.5 6.36034 13.579 6.21968 13.7197C6.07903 13.8603 6.00001 14.0511 6.00001 14.25C6.00001 14.4489 6.07903 14.6397 6.21968 14.7803C6.36034 14.921 6.5511 15 6.75001 15ZM6.75001 15V11.325C8.44675 10.2703 10.1993 9.30826 12 8.443M4.99301 19.993C5.55099 19.4364 5.99345 18.775 6.29498 18.0469C6.5965 17.3187 6.75115 16.5381 6.75001 15.75V14.25" stroke="#1B1B1F" stroke-width="2" stroke-linecap="round" stroke-linejoin="round"/>
</svg>
