<svg width="41" height="40" viewBox="0 0 41 40" fill="none" xmlns="http://www.w3.org/2000/svg">
<g clip-path="url(#clip0_359_1267)">
<path d="M15.9372 13.77L10.7005 26.2633H7.28382L4.70715 16.2916C4.55049 15.6783 4.41549 15.4533 3.93882 15.195C3.16215 14.7733 1.87882 14.3783 0.750488 14.1316L0.827155 13.77H6.32715C6.68657 13.7696 7.03427 13.8978 7.3075 14.1313C7.58073 14.3648 7.76149 14.6882 7.81715 15.0433L9.17882 22.2733L12.5422 13.77H15.9372ZM29.3255 22.185C29.3388 18.8866 24.7655 18.705 24.7972 17.2316C24.8072 16.7833 25.2338 16.3066 26.1672 16.185C27.261 16.0811 28.3625 16.2746 29.3555 16.745L29.9222 14.095C28.9554 13.7316 27.9316 13.5436 26.8988 13.54C23.7038 13.54 21.4555 15.24 21.4355 17.6716C21.4155 19.47 23.0405 20.4716 24.2655 21.0716C25.5255 21.6833 25.9488 22.0766 25.9422 22.6233C25.9338 23.4633 24.9388 23.8316 24.0088 23.8466C22.3838 23.8716 21.4422 23.4083 20.6888 23.0583L20.1038 25.795C20.8588 26.1416 22.2522 26.445 23.6972 26.4583C27.0922 26.4583 29.3138 24.7816 29.3255 22.185ZM37.7605 26.2633H40.7505L38.1422 13.77H35.3822C35.0873 13.7672 34.7983 13.8532 34.5529 14.0166C34.3074 14.1801 34.1167 14.4135 34.0055 14.6866L29.1572 26.2633H32.5505L33.2255 24.3966H37.3722L37.7605 26.2633ZM34.1555 21.8366L35.8555 17.145L36.8355 21.8366H34.1555ZM20.5555 13.77L17.8838 26.2633H14.6505L17.3255 13.77H20.5555Z" fill="#CCCCD2"/>
</g>
<defs>
<clipPath id="clip0_359_1267">
<rect width="40" height="40" fill="white" transform="translate(0.750488)"/>
</clipPath>
</defs>
</svg>
